Monda-Regular-Italic.ufo
<glyph name="exclam" format="1">
  <advance width="768"/>
  <unicode hex="0021"/>
  <outline>
    <contour>
      <point x="165" y="0" type="line"/>
      <point x="369" y="0" type="line"/>
      <point x="402" y="206" type="line"/>
      <point x="198" y="206" type="line"/>
    </contour>
    <contour>
      <point x="297" y="371" type="curve"/>
      <point x="353" y="371" type="line"/>
      <point x="353" y="371"/>
      <point x="541" y="1060"/>
      <point x="603" y="1446" type="curve"/>
      <point x="401" y="1446" type="line"/>
      <point x="339" y="1060"/>
      <point x="297" y="371"/>
    </contour>
  </outline>
</glyph>
<glyph name="quotedbl" format="1">
  <advance width="890"/>
  <unicode hex="0022"/>
  <outline>
    <contour>
      <point x="174" y="930" type="line"/>
      <point x="286" y="930" type="line"/>
      <point x="427" y="1506" type="line"/>
      <point x="222" y="1506" type="line"/>
    </contour>
    <contour>
      <point x="507" y="930" type="line"/>
      <point x="619" y="930" type="line"/>
      <point x="760" y="1506" type="line"/>
      <point x="555" y="1506" type="line"/>
    </contour>
  </outline>
</glyph>
<glyph name="dollar" format="1">
  <advance width="1303"/>
  <unicode hex="0024"/>
  <outline>
    <component base="S"/>
    <contour>
      <point x="451" y="-372" type="line"/>
      <point x="561" y="-372" type="line"/>
      <point x="899" y="1758" type="line"/>
      <point x="789" y="1758" type="line"/>
    </contour>
  </outline>
</glyph>
<glyph name="percent" format="1">
  <advance width="2048"/>
  <unicode hex="0025"/>
  <outline>
    <contour>
      <point x="480" y="794" type="curve" smooth="yes"/>
      <point x="342" y="794"/>
      <point x="342" y="899"/>
      <point x="364" y="1040" type="curve" smooth="yes"/>
      <point x="379" y="1135" type="line" smooth="yes"/>
      <point x="401" y="1271"/>
      <point x="427" y="1365"/>
      <point x="570" y="1365" type="curve" smooth="yes"/>
      <point x="714" y="1365"/>
      <point x="713" y="1271"/>
      <point x="691" y="1133" type="curve" smooth="yes"/>
      <point x="676" y="1040" type="line" smooth="yes"/>
      <point x="654" y="899"/>
      <point x="618" y="794"/>
    </contour>
    <contour>
      <point x="462" y="678" type="curve" smooth="yes"/>
      <point x="692" y="678"/>
      <point x="787" y="828"/>
      <point x="824" y="1057" type="curve" smooth="yes"/>
      <point x="832" y="1111" type="line" smooth="yes"/>
      <point x="867" y="1344"/>
      <point x="819" y="1481"/>
      <point x="589" y="1481" type="curve" smooth="yes"/>
      <point x="358" y="1481"/>
      <point x="269" y="1343"/>
      <point x="232" y="1110" type="curve" smooth="yes"/>
      <point x="224" y="1057" type="line" smooth="yes"/>
      <point x="188" y="829"/>
      <point x="232" y="678"/>
    </contour>
    <contour>
      <point x="1474" y="97" type="curve" smooth="yes"/>
      <point x="1336" y="97"/>
      <point x="1335" y="202"/>
      <point x="1358" y="343" type="curve" smooth="yes"/>
      <point x="1373" y="438" type="line" smooth="yes"/>
      <point x="1394" y="574"/>
      <point x="1421" y="668"/>
      <point x="1564" y="668" type="curve" smooth="yes"/>
      <point x="1708" y="668"/>
      <point x="1706" y="574"/>
      <point x="1684" y="436" type="curve" smooth="yes"/>
      <point x="1670" y="343" type="line" smooth="yes"/>
      <point x="1647" y="202"/>
      <point x="1612" y="97"/>
    </contour>
    <contour>
      <point x="1455" y="-19" type="curve" smooth="yes"/>
      <point x="1685" y="-19"/>
      <point x="1781" y="131"/>
      <point x="1817" y="360" type="curve" smooth="yes"/>
      <point x="1826" y="414" type="line"/>
      <point x="1861" y="647"/>
      <point x="1812" y="784"/>
      <point x="1582" y="784" type="curve" smooth="yes"/>
      <point x="1351" y="784"/>
      <point x="1263" y="646"/>
      <point x="1226" y="413" type="curve" smooth="yes"/>
      <point x="1217" y="360" type="line" smooth="yes"/>
      <point x="1181" y="132"/>
      <point x="1225" y="-19"/>
    </contour>
    <contour>
      <point x="552" y="0" type="line"/>
      <point x="706" y="0" type="line"/>
      <point x="1473" y="1446" type="line"/>
      <point x="1324" y="1446" type="line"/>
    </contour>
  </outline>
</glyph>
<glyph name="ampersand" format="1">
  <advance width="1500"/>
  <unicode hex="0026"/>
  <outline>
    <contour>
      <point x="601" y="-24" type="curve" smooth="yes"/>
      <point x="854" y="-24"/>
      <point x="1000" y="28"/>
      <point x="1089" y="114" type="curve"/>
      <point x="1209" y="-19" type="line"/>
      <point x="1331" y="94" type="line"/>
      <point x="1183" y="261" type="line"/>
      <point x="1211" y="332"/>
      <point x="1226" y="413"/>
      <point x="1240" y="500" type="curve" smooth="yes"/>
      <point x="1284" y="778" type="line"/>
      <point x="1109" y="778" type="line"/>
      <point x="1058" y="455" type="line" smooth="yes"/>
      <point x="1055" y="439"/>
      <point x="1053" y="424"/>
      <point x="1049" y="410" type="curve"/>
      <point x="606" y="907" type="line"/>
      <point x="530" y="1002"/>
      <point x="504" y="1048"/>
      <point x="517" y="1126" type="curve" smooth="yes"/>
      <point x="535" y="1242"/>
      <point x="589" y="1331"/>
      <point x="799" y="1331" type="curve" smooth="yes"/>
      <point x="987" y="1331"/>
      <point x="1049" y="1302"/>
      <point x="1027" y="1164" type="curve" smooth="yes"/>
      <point x="1017" y="1104" type="line"/>
      <point x="1183" y="1104" type="line"/>
      <point x="1199" y="1205" type="line" smooth="yes"/>
      <point x="1237" y="1441"/>
      <point x="1095" y="1483"/>
      <point x="808" y="1483" type="curve" smooth="yes"/>
      <point x="474" y="1483"/>
      <point x="358" y="1323"/>
      <point x="329" y="1142" type="curve" smooth="yes"/>
      <point x="305" y="988"/>
      <point x="363" y="913"/>
      <point x="453" y="816" type="curve"/>
      <point x="250" y="759"/>
      <point x="162" y="640"/>
      <point x="130" y="439" type="curve" smooth="yes"/>
      <point x="92" y="198"/>
      <point x="158" y="-24"/>
    </contour>
    <contour>
      <point x="624" y="126" type="curve" smooth="yes"/>
      <point x="368" y="126"/>
      <point x="300" y="239"/>
      <point x="333" y="445" type="curve" smooth="yes"/>
      <point x="352" y="567"/>
      <point x="380" y="680"/>
      <point x="537" y="723" type="curve"/>
      <point x="984" y="230" type="line"/>
      <point x="918" y="136"/>
      <point x="810" y="126"/>
    </contour>
  </outline>
</glyph>
<glyph name="quotesingle" format="1">
  <advance width="896"/>
  <unicode hex="0027"/>
  <outline>
    <contour>
      <point x="177" y="930" type="line"/>
      <point x="289" y="930" type="line"/>
      <point x="430" y="1506" type="line"/>
      <point x="225" y="1506" type="line"/>
    </contour>
  </outline>
</glyph>
<glyph name="parenleft" format="1">
  <advance width="768"/>
  <unicode hex="0028"/>
  <outline>
    <contour>
      <point x="508" y="-150" type="curve"/>
      <point x="532" y="0" type="line"/>
      <point x="254" y="0"/>
      <point x="276" y="153"/>
      <point x="317" y="409" type="curve" smooth="yes"/>
      <point x="410" y="996" type="line" smooth="yes"/>
      <point x="450" y="1253"/>
      <point x="478" y="1416"/>
      <point x="756" y="1416" type="curve"/>
      <point x="780" y="1567" type="line"/>
      <point x="310" y="1567"/>
      <point x="260" y="1265"/>
      <point x="212" y="959" type="curve" smooth="yes"/>
      <point x="129" y="440" type="line" smooth="yes"/>
      <point x="82" y="139"/>
      <point x="38" y="-150"/>
    </contour>
  </outline>
</glyph>
<glyph name="plus" format="1">
  <advance width="1024"/>
  <unicode hex="002B"/>
  <outline>
    <contour>
      <point x="373" y="156" type="line"/>
      <point x="524" y="156" type="line"/>
      <point x="577" y="494" type="line"/>
      <point x="851" y="494" type="line"/>
      <point x="875" y="642" type="line"/>
      <point x="601" y="642" type="line"/>
      <point x="652" y="968" type="line"/>
      <point x="501" y="968" type="line"/>
      <point x="450" y="642" type="line"/>
      <point x="175" y="642" type="line"/>
      <point x="151" y="494" type="line"/>
      <point x="426" y="494" type="line"/>
    </contour>
  </outline>
</glyph>
<glyph name="hyphen" format="1">
  <advance width="1024"/>
  <unicode hex="002D"/>
  <unicode hex="2015"/>
  <outline>
    <contour>
      <point x="507" y="567" type="move" name="_mid"/>
    </contour>
    <contour>
      <point x="161" y="499" type="line"/>
      <point x="821" y="499" type="line"/>
      <point x="843" y="642" type="line"/>
      <point x="183" y="642" type="line"/>
    </contour>
  </outline>
</glyph>
<glyph name="period" format="1">
  <advance width="628"/>
  <unicode hex="002E"/>
  <outline>
    <contour>
      <point x="167" y="0" type="line"/>
      <point x="423" y="0" type="line"/>
      <point x="461" y="242" type="line"/>
      <point x="205" y="242" type="line"/>
    </contour>
  </outline>
</glyph>
<glyph name="two" format="1">
  <advance width="1250"/>
  <unicode hex="0032"/>
  <outline>
    <contour>
      <point x="115" y="0" type="line"/>
      <point x="971" y="0" type="line"/>
      <point x="995" y="156" type="line"/>
      <point x="349" y="156" type="line"/>
      <point x="818" y="581" type="line" smooth="yes"/>
      <point x="988" y="735"/>
      <point x="1111" y="834"/>
      <point x="1146" y="1059" type="curve" smooth="yes"/>
      <point x="1183" y="1289"/>
      <point x="1066" y="1468"/>
      <point x="755" y="1468" type="curve" smooth="yes"/>
      <point x="463" y="1468"/>
      <point x="260" y="1342"/>
      <point x="210" y="1024" type="curve"/>
      <point x="411" y="1024" type="line"/>
      <point x="448" y="1259"/>
      <point x="534" y="1306"/>
      <point x="745" y="1306" type="curve" smooth="yes"/>
      <point x="922" y="1306"/>
      <point x="985" y="1242"/>
      <point x="956" y="1057" type="curve" smooth="yes"/>
      <point x="933" y="912"/>
      <point x="863" y="847"/>
      <point x="693" y="689" type="curve" smooth="yes"/>
      <point x="121" y="158" type="line"/>
    </contour>
  </outline>
</glyph>
<glyph name="four" format="1">
  <advance width="1250"/>
  <unicode hex="0034"/>
  <outline>
    <contour>
      <point x="668" y="0" type="line"/>
      <point x="835" y="0" type="line"/>
      <point x="891" y="351" type="line"/>
      <point x="1103" y="351" type="line"/>
      <point x="1128" y="506" type="line"/>
      <point x="916" y="506" type="line"/>
      <point x="968" y="837" type="line"/>
      <point x="801" y="837" type="line"/>
      <point x="749" y="506" type="line"/>
      <point x="333" y="506" type="line"/>
      <point x="996" y="1446" type="line"/>
      <point x="787" y="1446" type="line"/>
      <point x="109" y="508" type="line"/>
      <point x="84" y="351" type="line"/>
      <point x="724" y="351" type="line"/>
    </contour>
  </outline>
</glyph>
<glyph name="six" format="1">
  <advance width="1250"/>
  <unicode hex="0036"/>
  <outline>
    <contour>
      <point x="531" y="-22" type="curve" smooth="yes"/>
      <point x="807" y="-22"/>
      <point x="1036" y="104"/>
      <point x="1086" y="422" type="curve" smooth="yes"/>
      <point x="1138" y="752"/>
      <point x="976" y="878"/>
      <point x="680" y="878" type="curve" smooth="yes"/>
      <point x="620" y="878"/>
      <point x="542" y="860"/>
      <point x="496" y="841" type="curve"/>
      <point x="949" y="1446" type="line"/>
      <point x="749" y="1446" type="line"/>
      <point x="348" y="897" type="line"/>
      <point x="228" y="728"/>
      <point x="155" y="568"/>
      <point x="133" y="426" type="curve" smooth="yes"/>
      <point x="82" y="106"/>
      <point x="255" y="-22"/>
    </contour>
    <contour>
      <point x="559" y="140" type="curve" smooth="yes"/>
      <point x="378" y="140"/>
      <point x="283" y="197"/>
      <point x="320" y="425" type="curve" smooth="yes"/>
      <point x="355" y="646"/>
      <point x="469" y="715"/>
      <point x="650" y="715" type="curve" smooth="yes"/>
      <point x="829" y="715"/>
      <point x="938" y="668"/>
      <point x="899" y="422" type="curve" smooth="yes"/>
      <point x="863" y="197"/>
      <point x="739" y="140"/>
    </contour>
  </outline>
</glyph>
<glyph name="seven" format="1">
  <advance width="1250"/>
  <unicode hex="0037"/>
  <outline>
    <contour>
      <point x="254" y="0" type="line"/>
      <point x="465" y="0" type="line"/>
      <point x="1160" y="1289" type="line"/>
      <point x="1185" y="1446" type="line"/>
      <point x="304" y="1446" type="line"/>
      <point x="279" y="1291" type="line"/>
      <point x="959" y="1291" type="line"/>
    </contour>
  </outline>
</glyph>
<glyph name="nine" format="1">
  <advance width="1250"/>
  <unicode hex="0039"/>
  <outline>
    <contour>
      <point x="335" y="0" type="line"/>
      <point x="535" y="0" type="line"/>
      <point x="936" y="549" type="line"/>
      <point x="1056" y="718"/>
      <point x="1129" y="878"/>
      <point x="1151" y="1020" type="curve" smooth="yes"/>
      <point x="1202" y="1340"/>
      <point x="1029" y="1468"/>
      <point x="753" y="1468" type="curve" smooth="yes"/>
      <point x="477" y="1468"/>
      <point x="247" y="1342"/>
      <point x="197" y="1024" type="curve" smooth="yes"/>
      <point x="145" y="694"/>
      <point x="308" y="568"/>
      <point x="604" y="568" type="curve" smooth="yes"/>
      <point x="664" y="568"/>
      <point x="742" y="586"/>
      <point x="788" y="605" type="curve"/>
    </contour>
    <contour>
      <point x="634" y="731" type="curve" smooth="yes"/>
      <point x="455" y="731"/>
      <point x="345" y="778"/>
      <point x="384" y="1024" type="curve" smooth="yes"/>
      <point x="420" y="1249"/>
      <point x="545" y="1306"/>
      <point x="725" y="1306" type="curve" smooth="yes"/>
      <point x="906" y="1306"/>
      <point x="1001" y="1249"/>
      <point x="964" y="1021" type="curve" smooth="yes"/>
      <point x="929" y="800"/>
      <point x="815" y="731"/>
    </contour>
  </outline>
</glyph>
<glyph name="equal" format="1">
  <advance width="1250"/>
  <unicode hex="003D"/>
  <outline>
    <contour>
      <point x="186" y="467" type="line"/>
      <point x="988" y="467" type="line"/>
      <point x="1011" y="615" type="line"/>
      <point x="209" y="615" type="line"/>
    </contour>
    <contour>
      <point x="239" y="805" type="line"/>
      <point x="1041" y="805" type="line"/>
      <point x="1064" y="953" type="line"/>
      <point x="262" y="953" type="line"/>
    </contour>
  </outline>
</glyph>
<glyph name="greater" format="1">
  <advance width="1250"/>
  <unicode hex="003E"/>
  <outline>
    <contour>
      <point x="117" y="0" type="line"/>
      <point x="1078" y="472" type="line"/>
      <point x="1110" y="673" type="line"/>
      <point x="299" y="1144" type="line"/>
      <point x="265" y="935" type="line"/>
      <point x="939" y="571" type="line"/>
      <point x="150" y="203" type="line"/>
    </contour>
  </outline>
</glyph>
<glyph name="at" format="1">
  <advance width="2048"/>
  <unicode hex="0040"/>
  <outline>
    <contour>
      <point x="966" y="-258" type="curve" smooth="yes"/>
      <point x="1189" y="-258"/>
      <point x="1426" y="-207"/>
      <point x="1549" y="-158" type="curve"/>
      <point x="1521" y="-17" type="line"/>
      <point x="1413" y="-61"/>
      <point x="1204" y="-111"/>
      <point x="989" y="-111" type="curve" smooth="yes"/>
      <point x="654" y="-111"/>
      <point x="457" y="13"/>
      <point x="502" y="298" type="curve" smooth="yes"/>
      <point x="603" y="936" type="line" smooth="yes"/>
      <point x="649" y="1222"/>
      <point x="843" y="1331"/>
      <point x="1176" y="1331" type="curve" smooth="yes"/>
      <point x="1575" y="1331"/>
      <point x="1587" y="1180"/>
      <point x="1551" y="955" type="curve" smooth="yes"/>
      <point x="1550" y="955"/>
      <point x="1378" y="915"/>
      <point x="1240" y="883" type="curve" smooth="yes"/>
      <point x="839" y="790"/>
      <point x="756" y="689"/>
      <point x="731" y="533" type="curve" smooth="yes"/>
      <point x="703" y="351"/>
      <point x="804" y="195"/>
      <point x="1055" y="195" type="curve" smooth="yes"/>
      <point x="1272" y="195"/>
      <point x="1418" y="296"/>
      <point x="1484" y="376" type="curve"/>
      <point x="1496" y="294"/>
      <point x="1512" y="212"/>
      <point x="1669" y="212" type="curve" smooth="yes"/>
      <point x="1709" y="212" type="line"/>
      <point x="1752" y="360" type="line"/>
      <point x="1642" y="360"/>
      <point x="1641" y="392"/>
      <point x="1655" y="479" type="curve" smooth="yes"/>
      <point x="1657" y="491"/>
      <point x="1659" y="503"/>
      <point x="1733" y="972" type="curve" smooth="yes"/>
      <point x="1763" y="1163"/>
      <point x="1809" y="1483"/>
      <point x="1200" y="1483" type="curve" smooth="yes"/>
      <point x="659" y="1483"/>
      <point x="461" y="1236"/>
      <point x="407" y="895" type="curve" smooth="yes"/>
      <point x="318" y="332" type="line" smooth="yes"/>
      <point x="265" y="-3"/>
      <point x="428" y="-258"/>
    </contour>
    <contour>
      <point x="1110" y="343" type="curve" smooth="yes"/>
      <point x="985" y="343"/>
      <point x="913" y="404"/>
      <point x="934" y="539" type="curve" smooth="yes"/>
      <point x="950" y="636"/>
      <point x="1004" y="692"/>
      <point x="1235" y="749" type="curve" smooth="yes"/>
      <point x="1393" y="788"/>
      <point x="1511" y="816"/>
      <point x="1531" y="825" type="curve"/>
      <point x="1483" y="522" type="line"/>
      <point x="1432" y="412"/>
      <point x="1236" y="343"/>
    </contour>
  </outline>
</glyph>
<glyph name="A" format="1">
  <advance width="1428"/>
  <unicode hex="0041"/>
  <outline>
    <contour>
      <point x="1170" y="0" type="move" name="ogonek"/>
    </contour>
    <contour>
      <point x="831" y="1446" type="move" name="top"/>
    </contour>
    <contour>
      <point x="-29" y="0" type="line"/>
      <point x="180" y="0" type="line"/>
      <point x="324" y="282" type="line"/>
      <point x="969" y="282" type="line"/>
      <point x="1022" y="0" type="line"/>
      <point x="1227" y="0" type="line"/>
      <point x="917" y="1446" type="line"/>
      <point x="740" y="1446" type="line"/>
    </contour>
    <contour>
      <point x="395" y="425" type="line"/>
      <point x="797" y="1216" type="line"/>
      <point x="946" y="425" type="line"/>
    </contour>
  </outline>
</glyph>
<glyph name="B" format="1">
  <advance width="1420"/>
  <unicode hex="0042"/>
  <outline>
    <contour>
      <point x="811" y="1446" type="move" name="top"/>
    </contour>
    <contour>
      <point x="103" y="0" type="line"/>
      <point x="671" y="0" type="line" smooth="yes"/>
      <point x="1023" y="0"/>
      <point x="1197" y="124"/>
      <point x="1243" y="411" type="curve" smooth="yes"/>
      <point x="1272" y="595"/>
      <point x="1211" y="735"/>
      <point x="1048" y="773" type="curve"/>
      <point x="1189" y="819"/>
      <point x="1251" y="922"/>
      <point x="1274" y="1049" type="curve"/>
      <point x="1314" y="1301"/>
      <point x="1258" y="1446"/>
      <point x="857" y="1446" type="curve" smooth="yes"/>
      <point x="333" y="1446" type="line"/>
    </contour>
    <contour>
      <point x="329" y="149" type="line"/>
      <point x="416" y="696" type="line"/>
      <point x="816" y="696" type="line" smooth="yes"/>
      <point x="1037" y="696"/>
      <point x="1069" y="565"/>
      <point x="1048" y="433" type="curve" smooth="yes"/>
      <point x="1011" y="197"/>
      <point x="904" y="149"/>
      <point x="680" y="149" type="curve" smooth="yes"/>
    </contour>
    <contour>
      <point x="437" y="833" type="line"/>
      <point x="511" y="1295" type="line"/>
      <point x="802" y="1295" type="line" smooth="yes"/>
      <point x="1046" y="1295"/>
      <point x="1105" y="1256"/>
      <point x="1072" y="1047" type="curve" smooth="yes"/>
      <point x="1052" y="917"/>
      <point x="990" y="833"/>
      <point x="808" y="833" type="curve" smooth="yes"/>
    </contour>
  </outline>
</glyph>
<glyph name="C" format="1">
  <advance width="1456"/>
  <unicode hex="0043"/>
  <outline>
    <contour>
      <point x="880" y="1446" type="move" name="top"/>
    </contour>
    <contour>
      <point x="650" y="0" type="move" name="bot"/>
    </contour>
    <contour>
      <point x="643" y="-22" type="curve" smooth="yes"/>
      <point x="1103" y="-22"/>
      <point x="1207" y="147"/>
      <point x="1255" y="438" type="curve" smooth="yes"/>
      <point x="1255" y="442"/>
      <point x="1256" y="445"/>
      <point x="1256" y="448" type="curve"/>
      <point x="1065" y="448" type="line"/>
      <point x="1062" y="424" type="line" smooth="yes"/>
      <point x="1016" y="165"/>
      <point x="924" y="140"/>
      <point x="673" y="140" type="curve" smooth="yes"/>
      <point x="417" y="140"/>
      <point x="301" y="199"/>
      <point x="342" y="455" type="curve" smooth="yes"/>
      <point x="424" y="977" type="line" smooth="yes"/>
      <point x="465" y="1234"/>
      <point x="597" y="1306"/>
      <point x="851" y="1306" type="curve" smooth="yes"/>
      <point x="1109" y="1306"/>
      <point x="1189" y="1269"/>
      <point x="1154" y="1007" type="curve" smooth="yes"/>
      <point x="1153" y="998"/>
      <point x="1151" y="989"/>
      <point x="1150" y="980" type="curve"/>
      <point x="1343" y="997" type="line"/>
      <point x="1344" y="1001"/>
      <point x="1345" y="1006"/>
      <point x="1345" y="1010" type="curve" smooth="yes"/>
      <point x="1390" y="1308"/>
      <point x="1315" y="1468"/>
      <point x="877" y="1468" type="curve" smooth="yes"/>
      <point x="392" y="1468"/>
      <point x="265" y="1246"/>
      <point x="216" y="940" type="curve" smooth="yes"/>
      <point x="144" y="486" type="line" smooth="yes"/>
      <point x="97" y="185"/>
      <point x="160" y="-22"/>
    </contour>
  </outline>
</glyph>
<glyph name="D" format="1">
  <advance width="1522"/>
  <unicode hex="0044"/>
  <outline>
    <contour>
      <point x="831" y="1446" type="move" name="top"/>
    </contour>
    <contour>
      <point x="363" y="762" type="move" name="mid"/>
    </contour>
    <contour>
      <point x="329" y="150" type="line"/>
      <point x="511" y="1295" type="line"/>
      <point x="865" y="1295" type="line" smooth="yes"/>
      <point x="1071" y="1295"/>
      <point x="1221" y="1238"/>
      <point x="1178" y="971" type="curve" smooth="yes"/>
      <point x="1098" y="462" type="line" smooth="yes"/>
      <point x="1056" y="196"/>
      <point x="891" y="150"/>
      <point x="683" y="150" type="curve" smooth="yes"/>
    </contour>
    <contour>
      <point x="103" y="0" type="line"/>
      <point x="679" y="0" type="line" smooth="yes"/>
      <point x="1046" y="0"/>
      <point x="1252" y="169"/>
      <point x="1302" y="482" type="curve" smooth="yes"/>
      <point x="1377" y="959" type="line" smooth="yes"/>
      <point x="1421" y="1235"/>
      <point x="1308" y="1446"/>
      <point x="907" y="1446" type="curve" smooth="yes"/>
      <point x="333" y="1446" type="line"/>
    </contour>
  </outline>
</glyph>
<glyph name="E" format="1">
  <advance width="1255"/>
  <unicode hex="0045"/>
  <outline>
    <contour>
      <point x="791" y="1446" type="move" name="top"/>
    </contour>
    <contour>
      <point x="729" y="0" type="move" name="ogonek"/>
    </contour>
    <contour>
      <point x="513" y="0" type="move" name="bot"/>
    </contour>
    <contour>
      <point x="103" y="0" type="line"/>
      <point x="1018" y="0" type="line"/>
      <point x="1042" y="150" type="line"/>
      <point x="328" y="150" type="line"/>
      <point x="411" y="670" type="line"/>
      <point x="1031" y="670" type="line"/>
      <point x="1054" y="820" type="line"/>
      <point x="434" y="820" type="line"/>
      <point x="510" y="1296" type="line"/>
      <point x="1212" y="1296" type="line"/>
      <point x="1236" y="1446" type="line"/>
      <point x="333" y="1446" type="line"/>
    </contour>
  </outline>
</glyph>
<glyph name="G" format="1">
  <advance width="1556"/>
  <unicode hex="0047"/>
  <outline>
    <contour>
      <point x="663" y="0" type="move" name="bot"/>
    </contour>
    <contour>
      <point x="891" y="1446" type="move" name="top"/>
    </contour>
    <contour>
      <point x="670" y="-22" type="curve" smooth="yes"/>
      <point x="956" y="-22"/>
      <point x="1101" y="89"/>
      <point x="1149" y="246" type="curve"/>
      <point x="1135" y="0" type="line"/>
      <point x="1245" y="0" type="line"/>
      <point x="1362" y="735" type="line"/>
      <point x="817" y="735" type="line"/>
      <point x="794" y="588" type="line"/>
      <point x="1137" y="588" type="line"/>
      <point x="1116" y="455" type="line" smooth="yes"/>
      <point x="1075" y="199"/>
      <point x="954" y="140"/>
      <point x="696" y="140" type="curve" smooth="yes"/>
      <point x="440" y="140"/>
      <point x="305" y="199"/>
      <point x="346" y="455" type="curve" smooth="yes"/>
      <point x="428" y="977" type="line" smooth="yes"/>
      <point x="469" y="1234"/>
      <point x="626" y="1306"/>
      <point x="880" y="1306" type="curve" smooth="yes"/>
      <point x="1148" y="1306"/>
      <point x="1239" y="1279"/>
      <point x="1209" y="1037" type="curve" smooth="yes"/>
      <point x="1208" y="1026"/>
      <point x="1206" y="1014"/>
      <point x="1204" y="1001" type="curve"/>
      <point x="1390" y="1016" type="line"/>
      <point x="1392" y="1025"/>
      <point x="1393" y="1034"/>
      <point x="1394" y="1043" type="curve" smooth="yes"/>
      <point x="1429" y="1298"/>
      <point x="1367" y="1468"/>
      <point x="906" y="1468" type="curve" smooth="yes"/>
      <point x="421" y="1468"/>
      <point x="269" y="1246"/>
      <point x="220" y="940" type="curve" smooth="yes"/>
      <point x="148" y="486" type="line" smooth="yes"/>
      <point x="101" y="185"/>
      <point x="187" y="-22"/>
    </contour>
  </outline>
</glyph>
<glyph name="H" format="1">
  <advance width="1528"/>
  <unicode hex="0048"/>
  <outline>
    <contour>
      <point x="869" y="1446" type="move" name="top"/>
    </contour>
    <contour>
      <point x="649" y="0" type="move" name="center"/>
    </contour>
    <contour>
      <point x="97" y="0" type="line"/>
      <point x="298" y="0" type="line"/>
      <point x="403" y="659" type="line"/>
      <point x="1105" y="659" type="line"/>
      <point x="1000" y="0" type="line"/>
      <point x="1201" y="0" type="line"/>
      <point x="1431" y="1446" type="line"/>
      <point x="1230" y="1446" type="line"/>
      <point x="1128" y="807" type="line"/>
      <point x="426" y="807" type="line"/>
      <point x="528" y="1446" type="line"/>
      <point x="327" y="1446" type="line"/>
    </contour>
  </outline>
</glyph>
<glyph name="J" format="1">
  <advance width="1206"/>
  <unicode hex="004A"/>
  <outline>
    <contour>
      <point x="761" y="1446" type="move" name="top"/>
    </contour>
    <contour>
      <point x="406" y="-17" type="curve" smooth="yes"/>
      <point x="731" y="-17"/>
      <point x="900" y="157"/>
      <point x="943" y="431" type="curve" smooth="yes"/>
      <point x="1104" y="1446" type="line"/>
      <point x="350" y="1446" type="line"/>
      <point x="324" y="1281" type="line"/>
      <point x="877" y="1281" type="line"/>
      <point x="743" y="435" type="line" smooth="yes"/>
      <point x="713" y="248"/>
      <point x="617" y="148"/>
      <point x="426" y="148" type="curve" smooth="yes"/>
      <point x="280" y="148"/>
      <point x="123" y="203"/>
      <point x="79" y="225" type="curve"/>
      <point x="0" y="70" type="line"/>
      <point x="60" y="36"/>
      <point x="238" y="-17"/>
    </contour>
  </outline>
</glyph>
<glyph name="L" format="1">
  <advance width="1145"/>
  <unicode hex="004C"/>
  <outline>
    <contour>
      <point x="508" y="0" type="move" name="bot"/>
    </contour>
    <contour>
      <point x="710" y="1446" type="move" name="top"/>
    </contour>
    <contour>
      <point x="307" y="725" type="move" name="mid"/>
    </contour>
    <contour>
      <point x="103" y="0" type="line"/>
      <point x="953" y="0" type="line"/>
      <point x="978" y="155" type="line"/>
      <point x="329" y="155" type="line"/>
      <point x="534" y="1446" type="line"/>
      <point x="333" y="1446" type="line"/>
    </contour>
  </outline>
</glyph>
<glyph name="M" format="1">
  <advance width="1778"/>
  <unicode hex="004D"/>
  <outline>
    <contour>
      <point x="1001" y="1446" type="move" name="top"/>
    </contour>
    <contour>
      <point x="103" y="0" type="line"/>
      <point x="295" y="0" type="line"/>
      <point x="472" y="1117" type="line"/>
      <point x="774" y="458" type="line"/>
      <point x="923" y="458" type="line"/>
      <point x="1433" y="1121" type="line"/>
      <point x="1255" y="0" type="line"/>
      <point x="1445" y="0" type="line"/>
      <point x="1675" y="1446" type="line"/>
      <point x="1497" y="1446" type="line"/>
      <point x="877" y="638" type="line"/>
      <point x="518" y="1446" type="line"/>
      <point x="333" y="1446" type="line"/>
    </contour>
  </outline>
</glyph>
<glyph name="R" format="1">
  <advance width="1464"/>
  <unicode hex="0052"/>
  <outline>
    <contour>
      <point x="617" y="0" type="move" name="bot"/>
    </contour>
    <contour>
      <point x="831" y="1446" type="move" name="top"/>
    </contour>
    <contour>
      <point x="103" y="0" type="line"/>
      <point x="305" y="0" type="line"/>
      <point x="400" y="599" type="line"/>
      <point x="400" y="599"/>
      <point x="846" y="600"/>
      <point x="857" y="600" type="curve"/>
      <point x="1048" y="0" type="line"/>
      <point x="1255" y="0" type="line"/>
      <point x="1049" y="636" type="line"/>
      <point x="1178" y="687"/>
      <point x="1277" y="784"/>
      <point x="1314" y="1018" type="curve" smooth="yes"/>
      <point x="1365" y="1341"/>
      <point x="1221" y="1446"/>
      <point x="978" y="1446" type="curve" smooth="yes"/>
      <point x="333" y="1446" type="line"/>
    </contour>
    <contour>
      <point x="425" y="752" type="line"/>
      <point x="510" y="1293" type="line"/>
      <point x="959" y="1293" type="line" smooth="yes"/>
      <point x="1140" y="1293"/>
      <point x="1131" y="1139"/>
      <point x="1109" y="1000" type="curve" smooth="yes"/>
      <point x="1087" y="861"/>
      <point x="1026" y="752"/>
      <point x="851" y="752" type="curve" smooth="yes"/>
    </contour>
  </outline>
</glyph>
<glyph name="S" format="1">
  <advance width="1304"/>
  <unicode hex="0053"/>
  <outline>
    <contour>
      <point x="791" y="1446" type="move" name="top"/>
    </contour>
    <contour>
      <point x="547" y="0" type="move" name="bot"/>
    </contour>
    <contour>
      <point x="573" y="-22" type="curve" smooth="yes"/>
      <point x="909" y="-22"/>
      <point x="1072" y="139"/>
      <point x="1114" y="406" type="curve" smooth="yes"/>
      <point x="1149" y="625"/>
      <point x="1075" y="718"/>
      <point x="889" y="784" type="curve" smooth="yes"/>
      <point x="544" y="907" type="line" smooth="yes"/>
      <point x="408" y="955"/>
      <point x="407" y="1018"/>
      <point x="434" y="1137" type="curve" smooth="yes"/>
      <point x="461" y="1260"/>
      <point x="584" y="1306"/>
      <point x="783" y="1306" type="curve" smooth="yes"/>
      <point x="971" y="1306"/>
      <point x="1090" y="1257"/>
      <point x="1169" y="1210" type="curve"/>
      <point x="1243" y="1367" type="line"/>
      <point x="1159" y="1425"/>
      <point x="1021" y="1468"/>
      <point x="774" y="1468" type="curve" smooth="yes"/>
      <point x="497" y="1468"/>
      <point x="273" y="1366"/>
      <point x="229" y="1089" type="curve" smooth="yes"/>
      <point x="198" y="892"/>
      <point x="266" y="802"/>
      <point x="455" y="736" type="curve" smooth="yes"/>
      <point x="786" y="620" type="line"/>
      <point x="925" y="573"/>
      <point x="946" y="518"/>
      <point x="933" y="437" type="curve" smooth="yes"/>
      <point x="900" y="229"/>
      <point x="830" y="140"/>
      <point x="595" y="140" type="curve" smooth="yes"/>
      <point x="418" y="140"/>
      <point x="242" y="202"/>
      <point x="143" y="267" type="curve"/>
      <point x="47" y="113" type="line"/>
      <point x="185" y="25"/>
      <point x="358" y="-22"/>
    </contour>
  </outline>
</glyph>
<glyph name="T" format="1">
  <advance width="1204"/>
  <unicode hex="0054"/>
  <outline>
    <contour>
      <point x="487" y="0" type="move" name="bot"/>
    </contour>
    <contour>
      <point x="608" y="753" type="move" name="mid"/>
    </contour>
    <contour>
      <point x="729" y="1446" type="move" name="top"/>
    </contour>
    <contour>
      <point x="487" y="0" type="move" name="center"/>
    </contour>
    <contour>
      <point x="386" y="0" type="line"/>
      <point x="587" y="0" type="line"/>
      <point x="790" y="1281" type="line"/>
      <point x="1208" y="1281" type="line"/>
      <point x="1235" y="1446" type="line"/>
      <point x="199" y="1446" type="line"/>
      <point x="172" y="1281" type="line"/>
      <point x="589" y="1281" type="line"/>
    </contour>
  </outline>
</glyph>
<glyph name="W" format="1">
  <advance width="2048"/>
  <unicode hex="0057"/>
  <outline>
    <contour>
      <point x="1152" y="1446" type="move" name="top"/>
    </contour>
    <contour>
      <point x="407" y="0" type="line"/>
      <point x="559" y="0" type="line"/>
      <point x="1118" y="1232" type="line"/>
      <point x="1275" y="0" type="line"/>
      <point x="1427" y="0" type="line"/>
      <point x="2051" y="1446" type="line"/>
      <point x="1868" y="1446" type="line"/>
      <point x="1402" y="346" type="line"/>
      <point x="1248" y="1446" type="line"/>
      <point x="1033" y="1446" type="line"/>
      <point x="543" y="346" type="line"/>
      <point x="411" y="1446" type="line"/>
      <point x="227" y="1446" type="line"/>
    </contour>
  </outline>
</glyph>
<glyph name="Y" format="1">
  <advance width="1318"/>
  <unicode hex="0059"/>
  <outline>
    <contour>
      <point x="794" y="1446" type="move" name="top"/>
    </contour>
    <contour>
      <point x="445" y="0" type="line"/>
      <point x="646" y="0" type="line"/>
      <point x="736" y="568" type="line"/>
      <point x="1385" y="1446" type="line"/>
      <point x="1178" y="1446" type="line"/>
      <point x="664" y="744" type="line"/>
      <point x="376" y="1446" type="line"/>
      <point x="163" y="1446" type="line"/>
      <point x="535" y="568" type="line"/>
    </contour>
  </outline>
</glyph>
<glyph name="Z" format="1">
  <advance width="1242"/>
  <unicode hex="005A"/>
  <outline>
    <contour>
      <point x="778" y="1446" type="move" name="top"/>
    </contour>
    <contour>
      <point x="65" y="0" type="line"/>
      <point x="981" y="0" type="line"/>
      <point x="1008" y="165" type="line"/>
      <point x="314" y="165" type="line"/>
      <point x="1174" y="1295" type="line"/>
      <point x="1198" y="1446" type="line"/>
      <point x="326" y="1446" type="line"/>
      <point x="299" y="1281" type="line"/>
      <point x="950" y="1281" type="line"/>
      <point x="89" y="150" type="line"/>
    </contour>
  </outline>
</glyph>
<glyph name="backslash" format="1">
  <advance width="768"/>
  <unicode hex="005C"/>
  <outline>
    <contour>
      <point x="402" y="0" type="line"/>
      <point x="585" y="0" type="line"/>
      <point x="370" y="1506" type="line"/>
      <point x="183" y="1506" type="line"/>
    </contour>
  </outline>
</glyph>
<glyph name="bracketright" format="1">
  <advance width="768"/>
  <unicode hex="005D"/>
  <outline>
    <contour>
      <point x="68" y="-76" type="line"/>
      <point x="446" y="-76" type="line"/>
      <point x="700" y="1529" type="line"/>
      <point x="322" y="1529" type="line"/>
      <point x="301" y="1395" type="line"/>
      <point x="491" y="1395" type="line"/>
      <point x="279" y="57" type="line"/>
      <point x="89" y="57" type="line"/>
    </contour>
  </outline>
</glyph>
<glyph name="asciicircum" format="1">
  <advance width="1257"/>
  <unicode hex="005E"/>
  <outline>
    <contour>
      <point x="102" y="626" type="line"/>
      <point x="296" y="626" type="line"/>
      <point x="661" y="1161" type="line"/>
      <point x="858" y="626" type="line"/>
      <point x="1051" y="626" type="line"/>
      <point x="787" y="1283" type="line"/>
      <point x="565" y="1283" type="line"/>
    </contour>
  </outline>
</glyph>
<glyph name="a" format="1">
  <advance width="1172"/>
  <unicode hex="0061"/>
  <outline>
    <contour>
      <point x="973" y="10" type="move" name="ogonek"/>
    </contour>
    <contour>
      <point x="668" y="1060" type="move" name="top"/>
    </contour>
    <contour>
      <point x="364" y="-22" type="curve" smooth="yes"/>
      <point x="559" y="-22"/>
      <point x="678" y="78"/>
      <point x="736" y="150" type="curve"/>
      <point x="752" y="50"/>
      <point x="794" y="-8"/>
      <point x="935" y="-8" type="curve" smooth="yes"/>
      <point x="973" y="-8" type="line"/>
      <point x="1018" y="136" type="line"/>
      <point x="927" y="136"/>
      <point x="910" y="156"/>
      <point x="928" y="268" type="curve" smooth="yes"/>
      <point x="999" y="720" type="line" smooth="yes"/>
      <point x="1034" y="938"/>
      <point x="959" y="1080"/>
      <point x="679" y="1080" type="curve" smooth="yes"/>
      <point x="401" y="1080"/>
      <point x="247" y="988"/>
      <point x="214" y="779" type="curve" smooth="yes"/>
      <point x="206" y="731" type="line"/>
      <point x="387" y="731" type="line"/>
      <point x="394" y="778" type="line" smooth="yes"/>
      <point x="408" y="863"/>
      <point x="437" y="936"/>
      <point x="650" y="936" type="curve" smooth="yes"/>
      <point x="819" y="936"/>
      <point x="834" y="864"/>
      <point x="820" y="778" type="curve" smooth="yes"/>
      <point x="809" y="707"/>
      <point x="793" y="682"/>
      <point x="749" y="667" type="curve" smooth="yes"/>
      <point x="515" y="586" type="line" smooth="yes"/>
      <point x="206" y="479"/>
      <point x="119" y="407"/>
      <point x="100" y="253" type="curve" smooth="yes"/>
      <point x="80" y="90"/>
      <point x="145" y="-22"/>
    </contour>
    <contour>
      <point x="422" y="118" type="curve" smooth="yes"/>
      <point x="292" y="118"/>
      <point x="270" y="155"/>
      <point x="281" y="262" type="curve" smooth="yes"/>
      <point x="291" y="357"/>
      <point x="358" y="403"/>
      <point x="532" y="466" type="curve" smooth="yes"/>
      <point x="785" y="557" type="line"/>
      <point x="744" y="297" type="line"/>
      <point x="699" y="199"/>
      <point x="535" y="118"/>
    </contour>
  </outline>
</glyph>
<glyph name="b" format="1">
  <advance width="1204"/>
  <unicode hex="0062"/>
  <outline>
    <contour>
      <point x="714" y="1060" type="move" name="top"/>
    </contour>
    <contour>
      <point x="505" y="-22" type="curve" smooth="yes"/>
      <point x="781" y="-22"/>
      <point x="960" y="139"/>
      <point x="994" y="352" type="curve" smooth="yes"/>
      <point x="1055" y="736" type="line" smooth="yes"/>
      <point x="1087" y="940"/>
      <point x="975" y="1080"/>
      <point x="704" y="1080" type="curve" smooth="yes"/>
      <point x="605" y="1080"/>
      <point x="491" y="1049"/>
      <point x="416" y="1010" type="curve"/>
      <point x="495" y="1506" type="line"/>
      <point x="307" y="1506" type="line"/>
      <point x="68" y="0" type="line"/>
      <point x="207" y="0" type="line"/>
      <point x="243" y="71" type="line"/>
      <point x="293" y="36"/>
      <point x="379" y="-22"/>
    </contour>
    <contour>
      <point x="500" y="126" type="curve" smooth="yes"/>
      <point x="411" y="126"/>
      <point x="336" y="157"/>
      <point x="286" y="188" type="curve"/>
      <point x="394" y="870" type="line"/>
      <point x="469" y="902"/>
      <point x="584" y="936"/>
      <point x="672" y="936" type="curve" smooth="yes"/>
      <point x="810" y="936"/>
      <point x="889" y="877"/>
      <point x="869" y="750" type="curve" smooth="yes"/>
      <point x="803" y="332" type="line" smooth="yes"/>
      <point x="782" y="202"/>
      <point x="648" y="126"/>
    </contour>
  </outline>
</glyph>
<glyph name="c" format="1">
  <advance width="1106"/>
  <unicode hex="0063"/>
  <outline>
    <contour>
      <point x="475" y="0" type="move" name="bot"/>
    </contour>
    <contour>
      <point x="678" y="1060" type="move" name="top"/>
    </contour>
    <contour>
      <point x="492" y="-22" type="curve" smooth="yes"/>
      <point x="780" y="-22"/>
      <point x="896" y="66"/>
      <point x="955" y="310" type="curve"/>
      <point x="781" y="310" type="line"/>
      <point x="742" y="150"/>
      <point x="701" y="122"/>
      <point x="515" y="122" type="curve" smooth="yes"/>
      <point x="363" y="122"/>
      <point x="280" y="176"/>
      <point x="304" y="328" type="curve" smooth="yes"/>
      <point x="370" y="743" type="line" smooth="yes"/>
      <point x="392" y="884"/>
      <point x="481" y="936"/>
      <point x="643" y="936" type="curve" smooth="yes"/>
      <point x="819" y="936"/>
      <point x="871" y="901"/>
      <point x="841" y="707" type="curve"/>
      <point x="1023" y="724" type="line"/>
      <point x="1068" y="1009"/>
      <point x="915" y="1080"/>
      <point x="661" y="1080" type="curve" smooth="yes"/>
      <point x="398" y="1080"/>
      <point x="214" y="948"/>
      <point x="183" y="748" type="curve" smooth="yes"/>
      <point x="119" y="344" type="line" smooth="yes"/>
      <point x="88" y="148"/>
      <point x="176" y="-22"/>
    </contour>
  </outline>
</glyph>
<glyph name="d" format="1">
  <advance width="1200"/>
  <unicode hex="0064"/>
  <outline>
    <contour>
      <point x="876" y="1060" type="move" name="caron.alt"/>
    </contour>
    <contour>
      <point x="634" y="1060" type="move" name="top"/>
    </contour>
    <contour>
      <point x="1001" y="1275" type="move" name="mid"/>
    </contour>
    <contour>
      <point x="447" y="-22" type="curve" smooth="yes"/>
      <point x="556" y="-22"/>
      <point x="679" y="22"/>
      <point x="749" y="70" type="curve"/>
      <point x="768" y="0" type="line"/>
      <point x="896" y="0" type="line"/>
      <point x="1135" y="1506" type="line"/>
      <point x="947" y="1506" type="line"/>
      <point x="873" y="1040" type="line"/>
      <point x="811" y="1064"/>
      <point x="712" y="1080"/>
      <point x="645" y="1080" type="curve" smooth="yes"/>
      <point x="337" y="1080"/>
      <point x="181" y="948"/>
      <point x="147" y="735" type="curve" smooth="yes"/>
      <point x="84" y="335" type="line" smooth="yes"/>
      <point x="51" y="131"/>
      <point x="142" y="-22"/>
    </contour>
    <contour>
      <point x="482" y="126" type="curve" smooth="yes"/>
      <point x="344" y="126"/>
      <point x="248" y="189"/>
      <point x="269" y="321" type="curve" smooth="yes"/>
      <point x="338" y="756" type="line" smooth="yes"/>
      <point x="359" y="886"/>
      <point x="476" y="936"/>
      <point x="624" y="936" type="curve" smooth="yes"/>
      <point x="712" y="936"/>
      <point x="798" y="919"/>
      <point x="850" y="892" type="curve"/>
      <point x="738" y="189" type="line"/>
      <point x="691" y="163"/>
      <point x="589" y="126"/>
    </contour>
  </outline>
</glyph>
<glyph name="f" format="1">
  <advance width="782"/>
  <unicode hex="0066"/>
  <outline>
    <contour>
      <point x="498" y="1446" type="move" name="top"/>
    </contour>
    <contour>
      <point x="160" y="0" type="line"/>
      <point x="348" y="0" type="line"/>
      <point x="493" y="918" type="line"/>
      <point x="750" y="918" type="line"/>
      <point x="773" y="1060" type="line"/>
      <point x="516" y="1060" type="line"/>
      <point x="544" y="1239" type="line" smooth="yes"/>
      <point x="556" y="1315"/>
      <point x="603" y="1372"/>
      <point x="718" y="1372" type="curve" smooth="yes"/>
      <point x="834" y="1372" type="line"/>
      <point x="843" y="1505" type="line"/>
      <point x="724" y="1505" type="line" smooth="yes"/>
      <point x="506" y="1505"/>
      <point x="385" y="1419"/>
      <point x="353" y="1221" type="curve" smooth="yes"/>
      <point x="328" y="1060" type="line"/>
      <point x="151" y="1060" type="line"/>
      <point x="128" y="918" type="line"/>
      <point x="305" y="918" type="line"/>
    </contour>
  </outline>
</glyph>
<glyph name="g" format="1">
  <advance width="1182"/>
  <unicode hex="0067"/>
  <outline>
    <contour>
      <point x="680" y="1060" type="move" name="top"/>
    </contour>
    <contour>
      <point x="485" y="-408" type="curve" smooth="yes"/>
      <point x="765" y="-408"/>
      <point x="921" y="-223"/>
      <point x="961" y="25" type="curve" smooth="yes"/>
      <point x="1125" y="1060" type="line"/>
      <point x="937" y="1060" type="line"/>
      <point x="923" y="975" type="line"/>
      <point x="901" y="1025"/>
      <point x="776" y="1080"/>
      <point x="668" y="1080" type="curve" smooth="yes"/>
      <point x="392" y="1080"/>
      <point x="244" y="941"/>
      <point x="210" y="728" type="curve" smooth="yes"/>
      <point x="155" y="379" type="line" smooth="yes"/>
      <point x="120" y="159"/>
      <point x="232" y="40"/>
      <point x="503" y="40" type="curve" smooth="yes"/>
      <point x="576" y="40"/>
      <point x="718" y="60"/>
      <point x="787" y="116" type="curve"/>
      <point x="764" y="-31" type="line" smooth="yes"/>
      <point x="739" y="-188"/>
      <point x="654" y="-265"/>
      <point x="469" y="-265" type="curve" smooth="yes"/>
      <point x="369" y="-265"/>
      <point x="260" y="-248"/>
      <point x="206" y="-227" type="curve"/>
      <point x="141" y="-368" type="line"/>
      <point x="215" y="-397"/>
      <point x="342" y="-408"/>
    </contour>
    <contour>
      <point x="555" y="184" type="curve" smooth="yes"/>
      <point x="417" y="184"/>
      <point x="318" y="223"/>
      <point x="338" y="350" type="curve" smooth="yes"/>
      <point x="401" y="748" type="line" smooth="yes"/>
      <point x="422" y="878"/>
      <point x="525" y="936"/>
      <point x="673" y="936" type="curve" smooth="yes"/>
      <point x="840" y="936"/>
      <point x="908" y="882"/>
      <point x="894" y="790" type="curve" smooth="yes"/>
      <point x="811" y="264" type="line"/>
      <point x="777" y="240"/>
      <point x="695" y="184"/>
    </contour>
  </outline>
</glyph>
<glyph name="h" format="1">
  <advance width="1224"/>
  <unicode hex="0068"/>
  <outline>
    <contour>
      <point x="736" y="1060" type="move" name="top"/>
    </contour>
    <contour>
      <point x="368" y="1276" type="move" name="mid"/>
    </contour>
    <contour>
      <point x="67" y="0" type="line"/>
      <point x="255" y="0" type="line"/>
      <point x="375" y="758" type="line" smooth="yes"/>
      <point x="391" y="860"/>
      <point x="487" y="936"/>
      <point x="671" y="936" type="curve" smooth="yes"/>
      <point x="802" y="936"/>
      <point x="883" y="888"/>
      <point x="867" y="783" type="curve" smooth="yes"/>
      <point x="743" y="0" type="line"/>
      <point x="931" y="0" type="line"/>
      <point x="1053" y="773" type="line" smooth="yes"/>
      <point x="1080" y="941"/>
      <point x="1003" y="1080"/>
      <point x="742" y="1080" type="curve" smooth="yes"/>
      <point x="588" y="1080"/>
      <point x="480" y="1032"/>
      <point x="407" y="960" type="curve"/>
      <point x="493" y="1505" type="line"/>
      <point x="305" y="1505" type="line"/>
    </contour>
  </outline>
</glyph>
<glyph name="l" format="1">
  <advance width="692"/>
  <unicode hex="006C"/>
  <outline>
    <contour>
      <point x="421" y="1506" type="move" name="top"/>
    </contour>
    <contour>
      <point x="283" y="1060" type="move" name="caron.alt"/>
    </contour>
    <contour>
      <point x="261" y="0" type="move" name="bot"/>
    </contour>
    <contour>
      <point x="410" y="-8" type="curve" smooth="yes"/>
      <point x="464" y="-8" type="line"/>
      <point x="511" y="150" type="line"/>
      <point x="478" y="150" type="line" smooth="yes"/>
      <point x="321" y="150"/>
      <point x="288" y="183"/>
      <point x="316" y="356" type="curve" smooth="yes"/>
      <point x="498" y="1505" type="line"/>
      <point x="310" y="1505" type="line"/>
      <point x="128" y="358" type="line" smooth="yes"/>
      <point x="79" y="49"/>
      <point x="178" y="-8"/>
    </contour>
  </outline>
</glyph>
<glyph name="p" format="1">
  <advance width="1198"/>
  <unicode hex="0070"/>
  <outline>
    <contour>
      <point x="763" y="1060" type="move" name="top"/>
    </contour>
    <contour>
      <point x="68" y="-408" type="line"/>
      <point x="256" y="-408" type="line"/>
      <point x="326" y="34" type="line"/>
      <point x="373" y="8"/>
      <point x="448" y="-22"/>
      <point x="567" y="-22" type="curve" smooth="yes"/>
      <point x="843" y="-22"/>
      <point x="1018" y="131"/>
      <point x="1051" y="344" type="curve" smooth="yes"/>
      <point x="1112" y="729" type="line" smooth="yes"/>
      <point x="1145" y="933"/>
      <point x="1037" y="1080"/>
      <point x="766" y="1080" type="curve" smooth="yes"/>
      <point x="645" y="1080"/>
      <point x="522" y="1030"/>
      <point x="458" y="980" type="curve"/>
      <point x="449" y="1060" type="line"/>
      <point x="301" y="1060" type="line"/>
    </contour>
    <contour>
      <point x="578" y="122" type="curve" smooth="yes"/>
      <point x="469" y="122"/>
      <point x="393" y="152"/>
      <point x="349" y="179" type="curve"/>
      <point x="451" y="824" type="line"/>
      <point x="472" y="850"/>
      <point x="581" y="936"/>
      <point x="714" y="936" type="curve" smooth="yes"/>
      <point x="852" y="936"/>
      <point x="947" y="871"/>
      <point x="927" y="744" type="curve" smooth="yes"/>
      <point x="860" y="324" type="line" smooth="yes"/>
      <point x="840" y="194"/>
      <point x="726" y="122"/>
    </contour>
  </outline>
</glyph>
<glyph name="s" format="1">
  <advance width="982"/>
  <unicode hex="0073"/>
  <outline>
    <contour>
      <point x="604" y="1060" type="move" name="top"/>
    </contour>
    <contour>
      <point x="431" y="0" type="move" name="bot"/>
    </contour>
    <contour>
      <point x="437" y="-22" type="curve" smooth="yes"/>
      <point x="689" y="-22"/>
      <point x="807" y="116"/>
      <point x="833" y="283" type="curve" smooth="yes"/>
      <point x="859" y="448"/>
      <point x="836" y="515"/>
      <point x="669" y="585" type="curve" smooth="yes"/>
      <point x="435" y="683" type="line"/>
      <point x="367" y="709"/>
      <point x="352" y="733"/>
      <point x="363" y="799" type="curve" smooth="yes"/>
      <point x="378" y="895"/>
      <point x="416" y="936"/>
      <point x="588" y="936" type="curve" smooth="yes"/>
      <point x="677" y="936"/>
      <point x="801" y="903"/>
      <point x="858" y="878" type="curve"/>
      <point x="924" y="1022" type="line"/>
      <point x="851" y="1053"/>
      <point x="725" y="1080"/>
      <point x="576" y="1080" type="curve" smooth="yes"/>
      <point x="314" y="1080"/>
      <point x="215" y="969"/>
      <point x="186" y="790" type="curve" smooth="yes"/>
      <point x="165" y="658"/>
      <point x="207" y="590"/>
      <point x="353" y="536" type="curve"/>
      <point x="590" y="443" type="line" smooth="yes"/>
      <point x="685" y="406"/>
      <point x="686" y="363"/>
      <point x="673" y="281" type="curve" smooth="yes"/>
      <point x="659" y="192"/>
      <point x="602" y="122"/>
      <point x="435" y="122" type="curve" smooth="yes"/>
      <point x="291" y="122"/>
      <point x="175" y="176"/>
      <point x="132" y="202" type="curve"/>
      <point x="64" y="64" type="line"/>
      <point x="108" y="37"/>
      <point x="239" y="-22"/>
    </contour>
  </outline>
</glyph>
<glyph name="t" format="1">
  <advance width="832"/>
  <unicode hex="0074"/>
  <outline>
    <contour>
      <point x="349" y="32" type="move" name="bot"/>
    </contour>
    <contour>
      <point x="539" y="1280" type="move" name="top"/>
    </contour>
    <contour>
      <point x="363" y="597" type="move" name="mid"/>
    </contour>
    <contour>
      <point x="307" y="1060" type="move" name="caron.alt"/>
    </contour>
    <contour>
      <point x="565" y="-8" type="curve" smooth="yes"/>
      <point x="593" y="-8" type="line"/>
      <point x="638" y="150" type="line"/>
      <point x="617" y="150" type="line" smooth="yes"/>
      <point x="438" y="150"/>
      <point x="363" y="175"/>
      <point x="386" y="315" type="curve" smooth="yes"/>
      <point x="481" y="918" type="line"/>
      <point x="747" y="918" type="line"/>
      <point x="770" y="1060" type="line"/>
      <point x="504" y="1060" type="line"/>
      <point x="556" y="1388" type="line"/>
      <point x="398" y="1388" type="line"/>
      <point x="323" y="1060" type="line"/>
      <point x="139" y="1060" type="line"/>
      <point x="116" y="918" type="line"/>
      <point x="293" y="918" type="line"/>
      <point x="196" y="303" type="line" smooth="yes"/>
      <point x="159" y="70"/>
      <point x="275" y="-8"/>
    </contour>
  </outline>
</glyph>
<glyph name="u" format="1">
  <advance width="1222"/>
  <unicode hex="0075"/>
  <outline>
    <contour>
      <point x="875" y="0" type="move" name="ogonek"/>
    </contour>
    <contour>
      <point x="708" y="1060" type="move" name="top"/>
    </contour>
    <contour>
      <point x="453" y="-22" type="curve" smooth="yes"/>
      <point x="607" y="-22"/>
      <point x="718" y="38"/>
      <point x="787" y="133" type="curve"/>
      <point x="786" y="0" type="line"/>
      <point x="954" y="0" type="line"/>
      <point x="1122" y="1060" type="line"/>
      <point x="934" y="1060" type="line"/>
      <point x="815" y="309" type="line" smooth="yes"/>
      <point x="801" y="220"/>
      <point x="697" y="122"/>
      <point x="513" y="122" type="curve" smooth="yes"/>
      <point x="382" y="122"/>
      <point x="309" y="184"/>
      <point x="326" y="289" type="curve" smooth="yes"/>
      <point x="448" y="1060" type="line"/>
      <point x="260" y="1060" type="line"/>
      <point x="138" y="290" type="line" smooth="yes"/>
      <point x="111" y="122"/>
      <point x="192" y="-22"/>
    </contour>
  </outline>
</glyph>
<glyph name="x" format="1">
  <advance width="1056"/>
  <unicode hex="0078"/>
  <outline>
    <contour>
      <point x="-20" y="0" type="line"/>
      <point x="167" y="0" type="line"/>
      <point x="514" y="403" type="line"/>
      <point x="733" y="0" type="line"/>
      <point x="916" y="0" type="line"/>
      <point x="627" y="535" type="line"/>
      <point x="1079" y="1060" type="line"/>
      <point x="898" y="1060" type="line"/>
      <point x="557" y="666" type="line"/>
      <point x="343" y="1060" type="line"/>
      <point x="154" y="1060" type="line"/>
      <point x="441" y="533" type="line"/>
    </contour>
  </outline>
</glyph>
<glyph name="y" format="1">
  <advance width="1118"/>
  <unicode hex="0079"/>
  <outline>
    <contour>
      <point x="701" y="1060" type="move" name="top"/>
    </contour>
    <contour>
      <point x="82" y="-406" type="line"/>
      <point x="394" y="-406"/>
      <point x="505" y="-280"/>
      <point x="667" y="45" type="curve" smooth="yes"/>
      <point x="1176" y="1060" type="line"/>
      <point x="986" y="1060" type="line"/>
      <point x="581" y="216" type="line"/>
      <point x="391" y="1060" type="line"/>
      <point x="192" y="1060" type="line"/>
      <point x="462" y="4" type="line"/>
      <point x="379" y="-189"/>
      <point x="265" y="-259"/>
      <point x="105" y="-259" type="curve"/>
    </contour>
  </outline>
</glyph>
<glyph name="bar" format="1">
  <advance width="690"/>
  <unicode hex="007C"/>
  <outline>
    <contour>
      <point x="120" y="-167" type="line"/>
      <point x="298" y="-167" type="line"/>
      <point x="570" y="1555" type="line"/>
      <point x="392" y="1555" type="line"/>
    </contour>
  </outline>
</glyph>
<glyph name="sterling" format="1">
  <advance width="1273"/>
  <unicode hex="00A3"/>
  <outline>
    <contour>
      <point x="143" y="0" type="line"/>
      <point x="918" y="0" type="line"/>
      <point x="944" y="162" type="line"/>
      <point x="370" y="162" type="line"/>
      <point x="502" y="668" type="line"/>
      <point x="1000" y="668" type="line"/>
      <point x="1023" y="809" type="line"/>
      <point x="540" y="809" type="line"/>
      <point x="616" y="1104" type="line" smooth="yes"/>
      <point x="661" y="1275"/>
      <point x="759" y="1327"/>
      <point x="863" y="1327" type="curve" smooth="yes"/>
      <point x="964" y="1327"/>
      <point x="1069" y="1278"/>
      <point x="1105" y="1259" type="curve"/>
      <point x="1181" y="1398" type="line"/>
      <point x="1065" y="1459"/>
      <point x="959" y="1484"/>
      <point x="866" y="1484" type="curve" smooth="yes"/>
      <point x="632" y="1484"/>
      <point x="476" y="1319"/>
      <point x="428" y="1125" type="curve"/>
      <point x="347" y="809" type="line"/>
      <point x="177" y="809" type="line"/>
      <point x="154" y="668" type="line"/>
      <point x="311" y="668" type="line"/>
    </contour>
  </outline>
</glyph>
<glyph name="currency" format="1">
  <advance width="1149"/>
  <unicode hex="00A4"/>
  <outline>
    <contour>
      <point x="507" y="360" type="curve" smooth="yes"/>
      <point x="609" y="360"/>
      <point x="710" y="406"/>
      <point x="780" y="486" type="curve"/>
      <point x="927" y="376" type="line"/>
      <point x="992" y="457" type="line"/>
      <point x="839" y="571" type="line"/>
      <point x="859" y="608"/>
      <point x="872" y="648"/>
      <point x="878" y="689" type="curve" smooth="yes"/>
      <point x="888" y="751"/>
      <point x="880" y="809"/>
      <point x="862" y="860" type="curve"/>
      <point x="1067" y="993" type="line"/>
      <point x="1030" y="1075" type="line"/>
      <point x="814" y="935" type="line"/>
      <point x="766" y="990"/>
      <point x="695" y="1018"/>
      <point x="612" y="1018" type="curve" smooth="yes"/>
      <point x="530" y="1018"/>
      <point x="450" y="991"/>
      <point x="385" y="937" type="curve"/>
      <point x="224" y="1061" type="line"/>
      <point x="157" y="979" type="line"/>
      <point x="314" y="862" type="line"/>
      <point x="276" y="811"/>
      <point x="250" y="752"/>
      <point x="240" y="689" type="curve" smooth="yes"/>
      <point x="233" y="640"/>
      <point x="235" y="592"/>
      <point x="247" y="549" type="curve"/>
      <point x="83" y="443" type="line"/>
      <point x="120" y="360" type="line"/>
      <point x="284" y="468" type="line"/>
      <point x="333" y="398"/>
      <point x="412" y="360"/>
    </contour>
    <contour>
      <point x="522" y="444" type="curve" smooth="yes"/>
      <point x="393" y="444"/>
      <point x="314" y="555"/>
      <point x="336" y="690" type="curve" smooth="yes"/>
      <point x="357" y="826"/>
      <point x="471" y="936"/>
      <point x="600" y="936" type="curve" smooth="yes"/>
      <point x="729" y="936"/>
      <point x="807" y="826"/>
      <point x="786" y="690" type="curve" smooth="yes"/>
      <point x="764" y="555"/>
      <point x="651" y="444"/>
    </contour>
  </outline>
</glyph>
<glyph name="yen" format="1">
  <advance width="1318"/>
  <unicode hex="00A5"/>
  <outline>
    <component base="Y"/>
    <contour>
      <point x="1037" y="560" type="line"/>
      <point x="1061" y="708" type="line"/>
      <point x="258" y="708" type="line"/>
      <point x="234" y="560" type="line"/>
    </contour>
    <contour>
      <point x="988" y="252" type="line"/>
      <point x="1012" y="400" type="line"/>
      <point x="209" y="400" type="line"/>
      <point x="185" y="252" type="line"/>
    </contour>
  </outline>
</glyph>
<glyph name="copyright" format="1">
  <advance width="1784"/>
  <unicode hex="00A9"/>
  <outline>
    <contour>
      <point x="834" y="287" type="curve" smooth="yes"/>
      <point x="1110" y="287"/>
      <point x="1181" y="422"/>
      <point x="1209" y="598" type="curve" smooth="yes"/>
      <point x="1214" y="632" type="line"/>
      <point x="1098" y="632" type="line"/>
      <point x="1088" y="571" type="line" smooth="yes"/>
      <point x="1064" y="419"/>
      <point x="1001" y="376"/>
      <point x="848" y="376" type="curve" smooth="yes"/>
      <point x="696" y="376"/>
      <point x="623" y="419"/>
      <point x="647" y="571" type="curve" smooth="yes"/>
      <point x="698" y="890" type="line" smooth="yes"/>
      <point x="722" y="1042"/>
      <point x="810" y="1091"/>
      <point x="961" y="1091" type="curve" smooth="yes"/>
      <point x="1113" y="1091"/>
      <point x="1163" y="1042"/>
      <point x="1139" y="890" type="curve" smooth="yes"/>
      <point x="1129" y="826" type="line"/>
      <point x="1246" y="836" type="line"/>
      <point x="1250" y="861" type="line" smooth="yes"/>
      <point x="1279" y="1043"/>
      <point x="1252" y="1182"/>
      <point x="975" y="1182" type="curve" smooth="yes"/>
      <point x="687" y="1182"/>
      <point x="603" y="1050"/>
      <point x="574" y="868" type="curve" smooth="yes"/>
      <point x="530" y="590" type="line" smooth="yes"/>
      <point x="502" y="411"/>
      <point x="547" y="287"/>
    </contour>
    <contour>
      <point x="793" y="82" type="curve" smooth="yes"/>
      <point x="429" y="82"/>
      <point x="207" y="357"/>
      <point x="265" y="722" type="curve" smooth="yes"/>
      <point x="323" y="1086"/>
      <point x="631" y="1361"/>
      <point x="995" y="1361" type="curve" smooth="yes"/>
      <point x="1361" y="1361"/>
      <point x="1580" y="1086"/>
      <point x="1522" y="722" type="curve" smooth="yes"/>
      <point x="1464" y="357"/>
      <point x="1159" y="82"/>
    </contour>
    <contour>
      <point x="776" y="-14" type="curve" smooth="yes"/>
      <point x="1192" y="-14"/>
      <point x="1562" y="303"/>
      <point x="1628" y="722" type="curve" smooth="yes"/>
      <point x="1694" y="1139"/>
      <point x="1424" y="1456"/>
      <point x="1008" y="1456" type="curve" smooth="yes"/>
      <point x="595" y="1456"/>
      <point x="222" y="1139"/>
      <point x="156" y="722" type="curve" smooth="yes"/>
      <point x="90" y="303"/>
      <point x="363" y="-14"/>
    </contour>
  </outline>
</glyph>
<glyph name="guillemotleft" format="1">
  <advance width="1054"/>
  <unicode hex="00AB"/>
  <outline>
    <contour>
      <point x="305" y="80" type="line"/>
      <point x="456" y="150" type="line"/>
      <point x="309" y="530" type="line"/>
      <point x="576" y="910" type="line"/>
      <point x="440" y="980" type="line"/>
      <point x="96" y="530" type="line"/>
    </contour>
    <contour>
      <point x="719" y="80" type="line"/>
      <point x="868" y="150" type="line"/>
      <point x="723" y="530" type="line"/>
      <point x="988" y="910" type="line"/>
      <point x="854" y="980" type="line"/>
      <point x="510" y="530" type="line"/>
    </contour>
  </outline>
</glyph>
<glyph name="uni00AD" format="1">
  <advance width="1024"/>
  <unicode hex="00AD"/>
  <outline>
    <contour>
      <point x="507" y="567" type="move" name="_mid"/>
    </contour>
    <contour>
      <point x="161" y="499" type="line"/>
      <point x="821" y="499" type="line"/>
      <point x="843" y="642" type="line"/>
      <point x="183" y="642" type="line"/>
    </contour>
  </outline>
</glyph>
<glyph name="registered" format="1">
  <advance width="1784"/>
  <unicode hex="00AE"/>
  <outline>
    <contour>
      <point x="532" y="319" type="line"/>
      <point x="663" y="319" type="line"/>
      <point x="716" y="652" type="line"/>
      <point x="975" y="652" type="line"/>
      <point x="1102" y="319" type="line"/>
      <point x="1230" y="319" type="line"/>
      <point x="1101" y="666" type="line"/>
      <point x="1197" y="691"/>
      <point x="1268" y="760"/>
      <point x="1289" y="894" type="curve"/>
      <point x="1292" y="908" type="line"/>
      <point x="1315" y="1082"/>
      <point x="1224" y="1153"/>
      <point x="1067" y="1153" type="curve" smooth="yes"/>
      <point x="664" y="1153" type="line"/>
    </contour>
    <contour>
      <point x="730" y="742" type="line"/>
      <point x="781" y="1062" type="line"/>
      <point x="1057" y="1062" type="line" smooth="yes"/>
      <point x="1175" y="1062"/>
      <point x="1168" y="960"/>
      <point x="1159" y="901" type="curve" smooth="yes"/>
      <point x="1155" y="877" type="line" smooth="yes"/>
      <point x="1144" y="814"/>
      <point x="1111" y="742"/>
      <point x="997" y="742" type="curve" smooth="yes"/>
    </contour>
    <contour>
      <point x="793" y="82" type="curve" smooth="yes"/>
      <point x="429" y="82"/>
      <point x="207" y="357"/>
      <point x="265" y="722" type="curve" smooth="yes"/>
      <point x="323" y="1086"/>
      <point x="631" y="1361"/>
      <point x="995" y="1361" type="curve" smooth="yes"/>
      <point x="1361" y="1361"/>
      <point x="1580" y="1086"/>
      <point x="1522" y="722" type="curve" smooth="yes"/>
      <point x="1464" y="357"/>
      <point x="1159" y="82"/>
    </contour>
    <contour>
      <point x="776" y="-14" type="curve" smooth="yes"/>
      <point x="1192" y="-14"/>
      <point x="1562" y="303"/>
      <point x="1628" y="722" type="curve" smooth="yes"/>
      <point x="1694" y="1139"/>
      <point x="1424" y="1456"/>
      <point x="1008" y="1456" type="curve" smooth="yes"/>
      <point x="595" y="1456"/>
      <point x="222" y="1139"/>
      <point x="156" y="722" type="curve" smooth="yes"/>
      <point x="90" y="303"/>
      <point x="363" y="-14"/>
    </contour>
  </outline>
</glyph>
<glyph name="macron" format="1">
  <advance width="513"/>
  <unicode hex="00AF"/>
  <outline>
    <contour>
      <point x="257" y="1394" type="move" name="_mid"/>
    </contour>
    <contour>
      <point x="204" y="1060" type="move" name="_top"/>
    </contour>
    <contour>
      <point x="-20" y="1321" type="line"/>
      <point x="509" y="1321" type="line"/>
      <point x="533" y="1468" type="line"/>
      <point x="4" y="1468" type="line"/>
    </contour>
  </outline>
</glyph>
<glyph name="degree" format="1">
  <advance width="1036"/>
  <unicode hex="00B0"/>
  <outline>
    <contour>
      <point x="481" y="885" type="curve" smooth="yes"/>
      <point x="350" y="885"/>
      <point x="270" y="992"/>
      <point x="291" y="1123" type="curve" smooth="yes"/>
      <point x="312" y="1254"/>
      <point x="426" y="1361"/>
      <point x="557" y="1361" type="curve" smooth="yes"/>
      <point x="688" y="1361"/>
      <point x="768" y="1254"/>
      <point x="747" y="1123" type="curve" smooth="yes"/>
      <point x="726" y="992"/>
      <point x="612" y="885"/>
    </contour>
    <contour>
      <point x="467" y="798" type="curve" smooth="yes"/>
      <point x="645" y="798"/>
      <point x="814" y="943"/>
      <point x="842" y="1122" type="curve" smooth="yes"/>
      <point x="870" y="1300"/>
      <point x="747" y="1446"/>
      <point x="569" y="1446" type="curve" smooth="yes"/>
      <point x="391" y="1446"/>
      <point x="222" y="1300"/>
      <point x="194" y="1122" type="curve" smooth="yes"/>
      <point x="166" y="943"/>
      <point x="289" y="798"/>
    </contour>
  </outline>
</glyph>
<glyph name="plusminus" format="1">
  <advance width="1041"/>
  <unicode hex="00B1"/>
  <outline>
    <contour>
      <point x="434" y="334" type="line"/>
      <point x="555" y="334" type="line"/>
      <point x="599" y="611" type="line"/>
      <point x="852" y="611" type="line"/>
      <point x="870" y="726" type="line"/>
      <point x="617" y="726" type="line"/>
      <point x="660" y="992" type="line"/>
      <point x="539" y="992" type="line"/>
      <point x="496" y="726" type="line"/>
      <point x="243" y="726" type="line"/>
      <point x="225" y="611" type="line"/>
      <point x="478" y="611" type="line"/>
    </contour>
    <contour>
      <point x="128" y="0" type="line"/>
      <point x="755" y="0" type="line"/>
      <point x="774" y="120" type="line"/>
      <point x="147" y="120" type="line"/>
    </contour>
  </outline>
</glyph>
<glyph name="twosuperior" format="1">
  <advance width="1050"/>
  <unicode hex="00B2"/>
  <outline>
    <contour>
      <point x="173" y="694" type="line"/>
      <point x="753" y="694" type="line"/>
      <point x="770" y="804" type="line"/>
      <point x="352" y="804" type="line"/>
      <point x="592" y="974" type="line"/>
      <point x="736" y="1087"/>
      <point x="828" y="1165"/>
      <point x="852" y="1318" type="curve"/>
      <point x="878" y="1483"/>
      <point x="782" y="1584"/>
      <point x="596" y="1584" type="curve"/>
      <point x="408" y="1584"/>
      <point x="257" y="1498"/>
      <point x="223" y="1270" type="curve"/>
      <point x="366" y="1270" type="line"/>
      <point x="391" y="1438"/>
      <point x="466" y="1479"/>
      <point x="587" y="1479" type="curve"/>
      <point x="687" y="1479"/>
      <point x="737" y="1430"/>
      <point x="720" y="1319" type="curve"/>
      <point x="703" y="1213"/>
      <point x="654" y="1165"/>
      <point x="528" y="1066" type="curve"/>
      <point x="180" y="808" type="line"/>
    </contour>
  </outline>
</glyph>
<glyph name="cedilla" format="1">
  <advance width="512"/>
  <unicode hex="00B8"/>
  <outline>
    <contour>
      <point x="243" y="0" type="move" name="_bot"/>
    </contour>
    <contour>
      <point x="175" y="-486" type="curve" smooth="yes"/>
      <point x="340" y="-486"/>
      <point x="436" y="-397"/>
      <point x="450" y="-303" type="curve" smooth="yes"/>
      <point x="465" y="-214"/>
      <point x="405" y="-120"/>
      <point x="263" y="-94" type="curve"/>
      <point x="271" y="0" type="line"/>
      <point x="209" y="0" type="line"/>
      <point x="184" y="-158" type="line"/>
      <point x="284" y="-161"/>
      <point x="333" y="-229"/>
      <point x="324" y="-290" type="curve" smooth="yes"/>
      <point x="315" y="-342"/>
      <point x="266" y="-389"/>
      <point x="168" y="-389" type="curve" smooth="yes"/>
      <point x="147" y="-389"/>
      <point x="123" y="-387"/>
      <point x="98" y="-382" type="curve"/>
      <point x="83" y="-478" type="line"/>
      <point x="116" y="-484"/>
      <point x="147" y="-486"/>
    </contour>
  </outline>
</glyph>
<glyph name="onesuperior" format="1">
  <advance width="1050"/>
  <unicode hex="00B9"/>
  <outline>
    <contour>
      <point x="140" y="694" type="line"/>
      <point x="776" y="694" type="line"/>
      <point x="792" y="795" type="line"/>
      <point x="561" y="795" type="line"/>
      <point x="679" y="1545" type="line"/>
      <point x="572" y="1545" type="line"/>
      <point x="275" y="1512" type="line"/>
      <point x="271" y="1408" type="line"/>
      <point x="531" y="1434" type="line"/>
      <point x="430" y="795" type="line"/>
      <point x="156" y="795" type="line"/>
    </contour>
  </outline>
</glyph>
<glyph name="onequarter" format="1">
  <advance width="2047"/>
  <unicode hex="00BC"/>
  <outline>
    <contour>
      <point x="1536" y="0" type="line"/>
      <point x="1649" y="0" type="line"/>
      <point x="1682" y="207" type="line"/>
      <point x="1826" y="207" type="line"/>
      <point x="1840" y="298" type="line"/>
      <point x="1696" y="298" type="line"/>
      <point x="1733" y="533" type="line"/>
      <point x="1620" y="533" type="line"/>
      <point x="1583" y="298" type="line"/>
      <point x="1301" y="298" type="line"/>
      <point x="1743" y="892" type="line"/>
      <point x="1602" y="892" type="line"/>
      <point x="1149" y="299" type="line"/>
      <point x="1135" y="207" type="line"/>
      <point x="1569" y="207" type="line"/>
    </contour>
    <contour>
      <point x="148" y="654" type="line"/>
      <point x="784" y="654" type="line"/>
      <point x="800" y="755" type="line"/>
      <point x="569" y="755" type="line"/>
      <point x="688" y="1505" type="line"/>
      <point x="581" y="1505" type="line"/>
      <point x="284" y="1472" type="line"/>
      <point x="279" y="1368" type="line"/>
      <point x="540" y="1394" type="line"/>
      <point x="438" y="755" type="line"/>
      <point x="164" y="755" type="line"/>
    </contour>
    <contour>
      <point x="568" y="0" type="line"/>
      <point x="700" y="0" type="line"/>
      <point x="1607" y="1446" type="line"/>
      <point x="1481" y="1446" type="line"/>
    </contour>
  </outline>
</glyph>
<glyph name="threequarters" format="1">
  <advance width="2047"/>
  <unicode hex="00BE"/>
  <outline>
    <contour>
      <point x="523" y="653" type="curve" smooth="yes"/>
      <point x="722" y="653"/>
      <point x="844" y="736"/>
      <point x="869" y="896" type="curve" smooth="yes"/>
      <point x="891" y="1037"/>
      <point x="833" y="1090"/>
      <point x="720" y="1110" type="curve"/>
      <point x="840" y="1126"/>
      <point x="895" y="1187"/>
      <point x="912" y="1297" type="curve" smooth="yes"/>
      <point x="937" y="1449"/>
      <point x="826" y="1515"/>
      <point x="652" y="1515" type="curve" smooth="yes"/>
      <point x="471" y="1515"/>
      <point x="331" y="1477"/>
      <point x="290" y="1253" type="curve"/>
      <point x="425" y="1253" type="line"/>
      <point x="449" y="1408"/>
      <point x="513" y="1421"/>
      <point x="638" y="1421" type="curve" smooth="yes"/>
      <point x="759" y="1421"/>
      <point x="793" y="1374"/>
      <point x="780" y="1295" type="curve" smooth="yes"/>
      <point x="765" y="1200"/>
      <point x="747" y="1151"/>
      <point x="531" y="1151" type="curve"/>
      <point x="518" y="1066" type="line"/>
      <point x="728" y="1066"/>
      <point x="755" y="1025"/>
      <point x="735" y="897" type="curve" smooth="yes"/>
      <point x="720" y="799"/>
      <point x="667" y="746"/>
      <point x="545" y="746" type="curve" smooth="yes"/>
      <point x="406" y="746"/>
      <point x="345" y="774"/>
      <point x="362" y="932" type="curve"/>
      <point x="227" y="932" type="line"/>
      <point x="211" y="719"/>
      <point x="297" y="653"/>
    </contour>
    <contour>
      <point x="1535" y="0" type="line"/>
      <point x="1648" y="0" type="line"/>
      <point x="1681" y="207" type="line"/>
      <point x="1825" y="207" type="line"/>
      <point x="1839" y="298" type="line"/>
      <point x="1695" y="298" type="line"/>
      <point x="1732" y="533" type="line"/>
      <point x="1619" y="533" type="line"/>
      <point x="1582" y="298" type="line"/>
      <point x="1300" y="298" type="line"/>
      <point x="1742" y="892" type="line"/>
      <point x="1601" y="892" type="line"/>
      <point x="1148" y="299" type="line"/>
      <point x="1134" y="207" type="line"/>
      <point x="1568" y="207" type="line"/>
    </contour>
    <contour>
      <point x="567" y="0" type="line"/>
      <point x="699" y="0" type="line"/>
      <point x="1606" y="1446" type="line"/>
      <point x="1480" y="1446" type="line"/>
    </contour>
  </outline>
</glyph>
<glyph name="Oslash" format="1">
  <advance width="1546"/>
  <unicode hex="00D8"/>
  <outline>
    <component base="O"/>
    <contour>
      <point x="903" y="1446" type="move" name="top"/>
    </contour>
    <contour>
      <point x="331" y="-195" type="line"/>
      <point x="1300" y="1638" type="line"/>
      <point x="1202" y="1676" type="line"/>
      <point x="234" y="-157" type="line"/>
    </contour>
  </outline>
</glyph>
<glyph name="Thorn" format="1">
  <advance width="1320"/>
  <unicode hex="00DE"/>
  <outline>
    <contour>
      <point x="97" y="0" type="line"/>
      <point x="299" y="0" type="line"/>
      <point x="352" y="331" type="line"/>
      <point x="725" y="331" type="line" smooth="yes"/>
      <point x="971" y="331"/>
      <point x="1145" y="427"/>
      <point x="1200" y="773" type="curve" smooth="yes"/>
      <point x="1252" y="1102"/>
      <point x="1108" y="1208"/>
      <point x="865" y="1208" type="curve" smooth="yes"/>
      <point x="491" y="1208" type="line"/>
      <point x="529" y="1446" type="line"/>
      <point x="327" y="1446" type="line"/>
    </contour>
    <contour>
      <point x="376" y="484" type="line"/>
      <point x="467" y="1055" type="line"/>
      <point x="847" y="1055" type="line" smooth="yes"/>
      <point x="1028" y="1055"/>
      <point x="1018" y="900"/>
      <point x="996" y="759" type="curve" smooth="yes"/>
      <point x="972" y="610"/>
      <point x="928" y="484"/>
      <point x="753" y="484" type="curve" smooth="yes"/>
    </contour>
  </outline>
</glyph>
<glyph name="germandbls" format="1">
  <advance width="1281"/>
  <unicode hex="00DF"/>
  <outline>
    <contour>
      <point x="73" y="0" type="line"/>
      <point x="261" y="0" type="line"/>
      <point x="440" y="1131" type="line" smooth="yes"/>
      <point x="467" y="1305"/>
      <point x="591" y="1332"/>
      <point x="737" y="1332" type="curve" smooth="yes"/>
      <point x="875" y="1332"/>
      <point x="957" y="1296"/>
      <point x="929" y="1119" type="curve" smooth="yes"/>
      <point x="908" y="989"/>
      <point x="845" y="912"/>
      <point x="627" y="912" type="curve"/>
      <point x="605" y="770" type="line"/>
      <point x="843" y="770"/>
      <point x="991" y="743"/>
      <point x="950" y="485" type="curve" smooth="yes"/>
      <point x="902" y="182"/>
      <point x="695" y="168"/>
      <point x="424" y="148" type="curve"/>
      <point x="419" y="0" type="line"/>
      <point x="825" y="0"/>
      <point x="1067" y="119"/>
      <point x="1126" y="488" type="curve" smooth="yes"/>
      <point x="1173" y="786"/>
      <point x="1033" y="829"/>
      <point x="924" y="878" type="curve"/>
      <point x="1036" y="908"/>
      <point x="1095" y="979"/>
      <point x="1119" y="1135" type="curve" smooth="yes"/>
      <point x="1153" y="1347"/>
      <point x="1050" y="1483"/>
      <point x="769" y="1483" type="curve" smooth="yes"/>
      <point x="513" y="1483"/>
      <point x="294" y="1401"/>
      <point x="247" y="1103" type="curve" smooth="yes"/>
    </contour>
  </outline>
</glyph>
<glyph name="eth" format="1">
  <advance width="1158"/>
  <unicode hex="00F0"/>
  <outline>
    <contour>
      <point x="457" y="-20" type="curve" smooth="yes"/>
      <point x="840" y="-20"/>
      <point x="910" y="170"/>
      <point x="941" y="365" type="curve" smooth="yes"/>
      <point x="1000" y="736" type="line" smooth="yes"/>
      <point x="1051" y="1058"/>
      <point x="1005" y="1312"/>
      <point x="793" y="1427" type="curve"/>
      <point x="913" y="1565" type="line"/>
      <point x="827" y="1617" type="line"/>
      <point x="702" y="1470" type="line"/>
      <point x="548" y="1508"/>
      <point x="409" y="1488"/>
      <point x="345" y="1477" type="curve"/>
      <point x="297" y="1349" type="line"/>
      <point x="365" y="1355"/>
      <point x="477" y="1363"/>
      <point x="592" y="1341" type="curve"/>
      <point x="432" y="1152" type="line"/>
      <point x="519" y="1100" type="line"/>
      <point x="692" y="1304" type="line"/>
      <point x="804" y="1238"/>
      <point x="872" y="1112"/>
      <point x="840" y="911" type="curve"/>
      <point x="816" y="934"/>
      <point x="721" y="975"/>
      <point x="605" y="975" type="curve" smooth="yes"/>
      <point x="342" y="975"/>
      <point x="158" y="846"/>
      <point x="126" y="646" type="curve" smooth="yes"/>
      <point x="73" y="314" type="line" smooth="yes"/>
      <point x="42" y="118"/>
      <point x="141" y="-20"/>
    </contour>
    <contour>
      <point x="480" y="121" type="curve" smooth="yes"/>
      <point x="333" y="121"/>
      <point x="237" y="166"/>
      <point x="259" y="308" type="curve" smooth="yes"/>
      <point x="314" y="652" type="line" smooth="yes"/>
      <point x="335" y="783"/>
      <point x="446" y="833"/>
      <point x="592" y="833" type="curve" smooth="yes"/>
      <point x="652" y="833"/>
      <point x="780" y="813"/>
      <point x="823" y="783" type="curve"/>
      <point x="755" y="359" type="line"/>
      <point x="738" y="229"/>
      <point x="713" y="121"/>
    </contour>
  </outline>
</glyph>
<glyph name="hbar" format="1">
  <advance width="1224"/>
  <unicode hex="0127"/>
  <outline>
    <contour>
      <point x="108" y="1249" type="line"/>
      <point x="923" y="1249" type="line"/>
      <point x="942" y="1373" type="line"/>
      <point x="127" y="1373" type="line"/>
    </contour>
    <component base="h"/>
  </outline>
</glyph>
<glyph name="kgreenlandic" format="1">
  <advance width="1148"/>
  <unicode hex="0138"/>
  <outline>
    <contour>
      <point x="102" y="0" type="line"/>
      <point x="290" y="0" type="line"/>
      <point x="346" y="354" type="line"/>
      <point x="516" y="498" type="line"/>
      <point x="821" y="0" type="line"/>
      <point x="1038" y="0" type="line"/>
      <point x="673" y="583" type="line"/>
      <point x="1163" y="1060" type="line"/>
      <point x="955" y="1060" type="line"/>
      <point x="757" y="877"/>
      <point x="570" y="692"/>
      <point x="371" y="510" type="curve"/>
      <point x="458" y="1060" type="line"/>
      <point x="270" y="1060" type="line"/>
    </contour>
  </outline>
</glyph>
<glyph name="lslash" format="1">
  <advance width="708"/>
  <unicode hex="0142"/>
  <outline>
    <component base="l"/>
    <contour>
      <point x="31" y="616" type="line"/>
      <point x="626" y="887" type="line"/>
      <point x="646" y="1011" type="line"/>
      <point x="51" y="740" type="line"/>
    </contour>
  </outline>
</glyph>
<glyph name="OE" format="1">
  <advance width="1557"/>
  <unicode hex="0152"/>
  <outline>
    <contour>
      <point x="664" y="0" type="move" name="top"/>
    </contour>
    <contour>
      <point x="660" y="0" type="curve" smooth="yes"/>
      <point x="1284" y="0" type="line"/>
      <point x="1308" y="150" type="line"/>
      <point x="885" y="150" type="line"/>
      <point x="967" y="664" type="line"/>
      <point x="1320" y="664" type="line"/>
      <point x="1343" y="814" type="line"/>
      <point x="990" y="814" type="line"/>
      <point x="1067" y="1296" type="line"/>
      <point x="1481" y="1296" type="line"/>
      <point x="1505" y="1446" type="line"/>
      <point x="890" y="1446" type="line" smooth="yes"/>
      <point x="405" y="1446"/>
      <point x="262" y="1224"/>
      <point x="214" y="918" type="curve" smooth="yes"/>
      <point x="149" y="510" type="line" smooth="yes"/>
      <point x="102" y="209"/>
      <point x="177" y="0"/>
    </contour>
    <contour>
      <point x="674" y="150" type="line" smooth="yes"/>
      <point x="425" y="150"/>
      <point x="306" y="226"/>
      <point x="346" y="479" type="curve" smooth="yes"/>
      <point x="422" y="955" type="line" smooth="yes"/>
      <point x="462" y="1208"/>
      <point x="608" y="1295"/>
      <point x="855" y="1295" type="curve" smooth="yes"/>
      <point x="866" y="1295" type="line"/>
      <point x="684" y="150" type="line"/>
    </contour>
  </outline>
</glyph>
<glyph name="oe" format="1">
  <advance width="1734"/>
  <unicode hex="0153"/>
  <outline>
    <contour>
      <point x="783" y="0" type="move" name="top"/>
    </contour>
    <contour>
      <point x="482" y="-20" type="curve" smooth="yes"/>
      <point x="643" y="-20"/>
      <point x="743" y="34"/>
      <point x="818" y="122" type="curve"/>
      <point x="869" y="35"/>
      <point x="967" y="-20"/>
      <point x="1111" y="-20" type="curve" smooth="yes"/>
      <point x="1401" y="-20"/>
      <point x="1510" y="73"/>
      <point x="1571" y="331" type="curve"/>
      <point x="1401" y="331" type="line"/>
      <point x="1359" y="148"/>
      <point x="1299" y="121"/>
      <point x="1133" y="121" type="curve" smooth="yes"/>
      <point x="986" y="121"/>
      <point x="925" y="186"/>
      <point x="947" y="328" type="curve" smooth="yes"/>
      <point x="975" y="506" type="line"/>
      <point x="1600" y="506" type="line"/>
      <point x="1640" y="758" type="line" smooth="yes"/>
      <point x="1672" y="959"/>
      <point x="1561" y="1080"/>
      <point x="1285" y="1080" type="curve" smooth="yes"/>
      <point x="1140" y="1080"/>
      <point x="1030" y="1043"/>
      <point x="950" y="950" type="curve"/>
      <point x="894" y="1043"/>
      <point x="794" y="1080"/>
      <point x="656" y="1080" type="curve" smooth="yes"/>
      <point x="393" y="1080"/>
      <point x="216" y="947"/>
      <point x="184" y="747" type="curve" smooth="yes"/>
      <point x="116" y="317" type="line" smooth="yes"/>
      <point x="85" y="121"/>
      <point x="166" y="-20"/>
    </contour>
    <contour>
      <point x="504" y="121" type="curve" smooth="yes"/>
      <point x="357" y="121"/>
      <point x="281" y="170"/>
      <point x="302" y="301" type="curve" smooth="yes"/>
      <point x="375" y="763" type="line" smooth="yes"/>
      <point x="396" y="894"/>
      <point x="495" y="938"/>
      <point x="634" y="938" type="curve" smooth="yes"/>
      <point x="779" y="938"/>
      <point x="848" y="888"/>
      <point x="828" y="763" type="curve" smooth="yes"/>
      <point x="755" y="301" type="line" smooth="yes"/>
      <point x="734" y="171"/>
      <point x="643" y="121"/>
    </contour>
    <contour>
      <point x="995" y="633" type="line"/>
      <point x="1015" y="760" type="line" smooth="yes"/>
      <point x="1036" y="891"/>
      <point x="1113" y="938"/>
      <point x="1263" y="938" type="curve" smooth="yes"/>
      <point x="1408" y="938"/>
      <point x="1482" y="906"/>
      <point x="1461" y="778" type="curve" smooth="yes"/>
      <point x="1438" y="633" type="line"/>
    </contour>
  </outline>
</glyph>
<glyph name="florin" format="1">
  <advance width="890"/>
  <unicode hex="0192"/>
  <outline>
    <contour>
      <point x="120" y="-190" type="curve" smooth="yes"/>
      <point x="321" y="-190"/>
      <point x="405" y="-98"/>
      <point x="435" y="91" type="curve" smooth="yes"/>
      <point x="535" y="727" type="line"/>
      <point x="664" y="727" type="line"/>
      <point x="685" y="858" type="line"/>
      <point x="556" y="858" type="line"/>
      <point x="607" y="1177" type="line" smooth="yes"/>
      <point x="620" y="1263"/>
      <point x="653" y="1335"/>
      <point x="791" y="1335" type="curve" smooth="yes"/>
      <point x="801" y="1335"/>
      <point x="810" y="1335"/>
      <point x="820" y="1334" type="curve"/>
      <point x="840" y="1458" type="line"/>
      <point x="803" y="1462"/>
      <point x="768" y="1464"/>
      <point x="737" y="1464" type="curve" smooth="yes"/>
      <point x="529" y="1464"/>
      <point x="449" y="1372"/>
      <point x="415" y="1155" type="curve" smooth="yes"/>
      <point x="368" y="858" type="line"/>
      <point x="251" y="858" type="line"/>
      <point x="230" y="727" type="line"/>
      <point x="347" y="727" type="line"/>
      <point x="242" y="63" type="line" smooth="yes"/>
      <point x="229" y="-18"/>
      <point x="189" y="-61"/>
      <point x="78" y="-61" type="curve" smooth="yes"/>
      <point x="63" y="-61"/>
      <point x="47" y="-61"/>
      <point x="31" y="-59" type="curve"/>
      <point x="11" y="-183" type="line"/>
      <point x="50" y="-188"/>
      <point x="87" y="-190"/>
    </contour>
  </outline>
</glyph>
<glyph name="dotlessj" format="1">
  <advance width="595"/>
  <unicode hex="0237"/>
  <outline>
    <contour>
      <point x="443" y="1060" type="move" name="top"/>
    </contour>
    <contour>
      <point x="-85" y="-353" type="line"/>
      <point x="-19" y="-353" type="line" smooth="yes"/>
      <point x="187" y="-353"/>
      <point x="311" y="-305"/>
      <point x="360" y="7" type="curve" smooth="yes"/>
      <point x="527" y="1060" type="line"/>
      <point x="339" y="1060" type="line"/>
      <point x="170" y="-4" type="line" smooth="yes"/>
      <point x="143" y="-174"/>
      <point x="83" y="-197"/>
      <point x="-50" y="-197" type="curve" smooth="yes"/>
      <point x="-79" y="-197" type="line"/>
    </contour>
  </outline>
</glyph>
<glyph name="uni02C9" format="1">
  <advance width="513"/>
  <unicode hex="02C9"/>
  <outline>
    <contour>
      <point x="204" y="1060" type="move" name="_top"/>
    </contour>
    <contour>
      <point x="257" y="1394" type="move" name="_mid"/>
    </contour>
    <contour>
      <point x="-20" y="1321" type="line"/>
      <point x="509" y="1321" type="line"/>
      <point x="533" y="1468" type="line"/>
      <point x="4" y="1468" type="line"/>
    </contour>
  </outline>
</glyph>
<glyph name="ring" format="1">
  <advance width="512"/>
  <unicode hex="02DA"/>
  <outline>
    <contour>
      <point x="211" y="1060" type="move" name="_top"/>
    </contour>
    <contour>
      <point x="238" y="1233" type="curve" smooth="yes"/>
      <point x="181" y="1233"/>
      <point x="133" y="1259"/>
      <point x="147" y="1347" type="curve" smooth="yes"/>
      <point x="161" y="1434"/>
      <point x="218" y="1459"/>
      <point x="274" y="1459" type="curve" smooth="yes"/>
      <point x="332" y="1459"/>
      <point x="379" y="1432"/>
      <point x="365" y="1345" type="curve" smooth="yes"/>
      <point x="351" y="1258"/>
      <point x="295" y="1233"/>
    </contour>
    <contour>
      <point x="228" y="1168" type="curve" smooth="yes"/>
      <point x="328" y="1168"/>
      <point x="431" y="1223"/>
      <point x="450" y="1346" type="curve" smooth="yes"/>
      <point x="469" y="1469"/>
      <point x="384" y="1524"/>
      <point x="284" y="1524" type="curve" smooth="yes"/>
      <point x="184" y="1524"/>
      <point x="81" y="1469"/>
      <point x="62" y="1346" type="curve" smooth="yes"/>
      <point x="43" y="1223"/>
      <point x="128" y="1168"/>
    </contour>
  </outline>
</glyph>
<glyph name="tilde" format="1">
  <advance width="512"/>
  <unicode hex="02DC"/>
  <outline>
    <contour>
      <point x="214" y="1060" type="move" name="_top"/>
    </contour>
    <contour>
      <point x="126" y="1203" type="curve" smooth="yes"/>
      <point x="263" y="1203"/>
      <point x="312" y="1310"/>
      <point x="383" y="1310" type="curve" smooth="yes"/>
      <point x="424" y="1310"/>
      <point x="448" y="1279"/>
      <point x="438" y="1217" type="curve"/>
      <point x="535" y="1217" type="line"/>
      <point x="561" y="1382"/>
      <point x="505" y="1446"/>
      <point x="385" y="1446" type="curve" smooth="yes"/>
      <point x="248" y="1446"/>
      <point x="199" y="1339"/>
      <point x="128" y="1339" type="curve" smooth="yes"/>
      <point x="87" y="1339"/>
      <point x="63" y="1370"/>
      <point x="73" y="1432" type="curve"/>
      <point x="-24" y="1432" type="line"/>
      <point x="-50" y="1267"/>
      <point x="6" y="1203"/>
    </contour>
  </outline>
</glyph>
<glyph name="hungarumlaut" format="1">
  <advance width="1024"/>
  <unicode hex="02DD"/>
  <outline>
    <contour>
      <point x="355" y="1060" type="move" name="_top"/>
    </contour>
    <contour>
      <point x="134" y="1293" type="line"/>
      <point x="262" y="1293" type="line"/>
      <point x="557" y="1674" type="line"/>
      <point x="332" y="1674" type="line"/>
    </contour>
    <contour>
      <point x="544" y="1293" type="line"/>
      <point x="672" y="1293" type="line"/>
      <point x="967" y="1674" type="line"/>
      <point x="742" y="1674" type="line"/>
    </contour>
  </outline>
</glyph>
<glyph name="uni0307" format="1">
  <advance width="412"/>
  <unicode hex="0307"/>
  <outline>
    <contour>
      <point x="159" y="1060" type="move" name="_top"/>
    </contour>
    <contour>
      <point x="95" y="1327" type="line"/>
      <point x="288" y="1327" type="line"/>
      <point x="320" y="1535" type="line"/>
      <point x="127" y="1535" type="line"/>
    </contour>
  </outline>
</glyph>
<glyph name="uni030F" format="1">
  <advance width="1024"/>
  <unicode hex="030F"/>
  <outline>
    <contour>
      <point x="551" y="1060" type="move" name="_top"/>
    </contour>
    <contour>
      <point x="718" y="1293" type="line"/>
      <point x="846" y="1293" type="line"/>
      <point x="768" y="1674" type="line"/>
      <point x="543" y="1674" type="line"/>
    </contour>
    <contour>
      <point x="308" y="1293" type="line"/>
      <point x="436" y="1293" type="line"/>
      <point x="358" y="1674" type="line"/>
      <point x="133" y="1674" type="line"/>
    </contour>
  </outline>
</glyph>
<glyph name="uni0311" format="1">
  <advance width="512"/>
  <unicode hex="0311"/>
  <outline>
    <contour>
      <point x="219" y="1060" type="move" name="_top"/>
    </contour>
    <contour>
      <point x="13" y="1256" type="curve"/>
      <point x="139" y="1256" type="line"/>
      <point x="149" y="1316"/>
      <point x="203" y="1346"/>
      <point x="253" y="1346" type="curve" smooth="yes"/>
      <point x="303" y="1346"/>
      <point x="349" y="1316"/>
      <point x="339" y="1256" type="curve"/>
      <point x="465" y="1256" type="line"/>
      <point x="483" y="1371"/>
      <point x="412" y="1468"/>
      <point x="273" y="1468" type="curve" smooth="yes"/>
      <point x="134" y="1468"/>
      <point x="31" y="1371"/>
    </contour>
  </outline>
</glyph>
<glyph name="uni0358" format="1">
  <advance width="600"/>
  <unicode hex="0358"/>
  <outline>
    <contour>
      <point x="229" y="1060" type="move" name="_top"/>
    </contour>
    <contour>
      <point x="165" y="1327" type="line"/>
      <point x="358" y="1327" type="line"/>
      <point x="390" y="1535" type="line"/>
      <point x="197" y="1535" type="line"/>
    </contour>
  </outline>
</glyph>
<glyph name="mu" format="1">
  <advance width="1224"/>
  <unicode hex="03BC"/>
  <outline>
    <contour>
      <point x="903" y="0" type="move" name="ogonek"/>
    </contour>
    <contour>
      <point x="736" y="1060" type="move" name="top"/>
    </contour>
    <contour>
      <point x="962" y="1060" type="line"/>
      <point x="843" y="309" type="line" smooth="yes"/>
      <point x="829" y="220"/>
      <point x="726" y="122"/>
      <point x="542" y="122" type="curve" smooth="yes"/>
      <point x="411" y="122"/>
      <point x="338" y="184"/>
      <point x="354" y="289" type="curve" smooth="yes"/>
      <point x="476" y="1060" type="line"/>
      <point x="288" y="1060" type="line"/>
      <point x="60" y="-383" type="line"/>
      <point x="248" y="-383" type="line"/>
      <point x="309" y="7" type="line"/>
      <point x="355" y="-12"/>
      <point x="412" y="-22"/>
      <point x="482" y="-22" type="curve" smooth="yes"/>
      <point x="636" y="-22"/>
      <point x="746" y="38"/>
      <point x="815" y="133" type="curve"/>
      <point x="814" y="0" type="line"/>
      <point x="982" y="0" type="line"/>
      <point x="1150" y="1060" type="line"/>
    </contour>
  </outline>
</glyph>
<glyph name="pi" format="1">
  <advance width="1180"/>
  <unicode hex="03C0"/>
  <outline>
    <contour>
      <point x="87" y="875" type="line"/>
      <point x="87" y="875"/>
      <point x="204" y="935"/>
      <point x="317" y="935" type="curve"/>
      <point x="169" y="0" type="line"/>
      <point x="357" y="0" type="line"/>
      <point x="505" y="935" type="line"/>
      <point x="811" y="935" type="line"/>
      <point x="705" y="267" type="line" smooth="yes"/>
      <point x="668" y="31"/>
      <point x="753" y="-21"/>
      <point x="958" y="-22" type="curve"/>
      <point x="1029" y="124" type="line"/>
      <point x="898" y="154"/>
      <point x="877" y="167"/>
      <point x="904" y="333" type="curve" smooth="yes"/>
      <point x="999" y="935" type="line"/>
      <point x="1181" y="935" type="line"/>
      <point x="1201" y="1060" type="line"/>
      <point x="304" y="1060" type="line" smooth="yes"/>
      <point x="183" y="1060"/>
      <point x="107" y="1000"/>
      <point x="107" y="1000" type="curve"/>
    </contour>
  </outline>
</glyph>
<glyph name="endash" format="1">
  <advance width="539"/>
  <unicode hex="2013"/>
  <outline>
    <contour>
      <point x="-8" y="606" type="line"/>
      <point x="525" y="606" type="line"/>
      <point x="545" y="732" type="line"/>
      <point x="12" y="732" type="line"/>
    </contour>
  </outline>
</glyph>
<glyph name="quoteleft" format="1">
  <advance width="769"/>
  <unicode hex="2018"/>
  <outline>
    <contour>
      <point x="537" y="1468" type="line"/>
      <point x="471" y="1414"/>
      <point x="334" y="1271"/>
      <point x="304" y="1080" type="curve" smooth="yes"/>
      <point x="275" y="897" type="line"/>
      <point x="532" y="897" type="line"/>
      <point x="569" y="1130" type="line"/>
      <point x="428" y="1130" type="line"/>
      <point x="449" y="1262"/>
      <point x="556" y="1369"/>
      <point x="611" y="1424" type="curve"/>
    </contour>
  </outline>
</glyph>
<glyph name="quoteright" format="1">
  <advance width="769"/>
  <unicode hex="2019"/>
  <outline>
    <contour>
      <point x="232" y="897" type="line"/>
      <point x="298" y="951"/>
      <point x="435" y="1094"/>
      <point x="465" y="1285" type="curve" smooth="yes"/>
      <point x="494" y="1468" type="line"/>
      <point x="237" y="1468" type="line"/>
      <point x="200" y="1235" type="line"/>
      <point x="341" y="1235" type="line"/>
      <point x="320" y="1103"/>
      <point x="213" y="996"/>
      <point x="158" y="941" type="curve"/>
    </contour>
  </outline>
</glyph>
<glyph name="quotesinglbase" format="1">
  <advance width="769"/>
  <unicode hex="201A"/>
  <outline>
    <contour>
      <point x="232" y="-338" type="line"/>
      <point x="298" y="-284"/>
      <point x="435" y="-141"/>
      <point x="465" y="50" type="curve" smooth="yes"/>
      <point x="494" y="233" type="line"/>
      <point x="237" y="233" type="line"/>
      <point x="200" y="0" type="line"/>
      <point x="341" y="0" type="line"/>
      <point x="320" y="-132"/>
      <point x="213" y="-239"/>
      <point x="158" y="-294" type="curve"/>
    </contour>
  </outline>
</glyph>
<glyph name="quotedblleft" format="1">
  <advance width="1181"/>
  <unicode hex="201C"/>
  <outline>
    <contour>
      <point x="537" y="1468" type="line"/>
      <point x="471" y="1414"/>
      <point x="334" y="1271"/>
      <point x="304" y="1080" type="curve" smooth="yes"/>
      <point x="275" y="897" type="line"/>
      <point x="532" y="897" type="line"/>
      <point x="569" y="1130" type="line"/>
      <point x="428" y="1130" type="line"/>
      <point x="449" y="1262"/>
      <point x="556" y="1369"/>
      <point x="611" y="1424" type="curve"/>
    </contour>
    <contour>
      <point x="949" y="1468" type="line"/>
      <point x="883" y="1414"/>
      <point x="746" y="1271"/>
      <point x="716" y="1080" type="curve" smooth="yes"/>
      <point x="687" y="897" type="line"/>
      <point x="944" y="897" type="line"/>
      <point x="981" y="1130" type="line"/>
      <point x="840" y="1130" type="line"/>
      <point x="861" y="1262"/>
      <point x="968" y="1369"/>
      <point x="1023" y="1424" type="curve"/>
    </contour>
  </outline>
</glyph>
<glyph name="quotedblbase" format="1">
  <advance width="1181"/>
  <unicode hex="201E"/>
  <outline>
    <contour>
      <point x="644" y="-338" type="line"/>
      <point x="710" y="-284"/>
      <point x="847" y="-141"/>
      <point x="877" y="50" type="curve" smooth="yes"/>
      <point x="906" y="233" type="line"/>
      <point x="649" y="233" type="line"/>
      <point x="612" y="0" type="line"/>
      <point x="753" y="0" type="line"/>
      <point x="732" y="-132"/>
      <point x="625" y="-239"/>
      <point x="570" y="-294" type="curve"/>
    </contour>
    <contour>
      <point x="232" y="-338" type="line"/>
      <point x="298" y="-284"/>
      <point x="435" y="-141"/>
      <point x="465" y="50" type="curve" smooth="yes"/>
      <point x="494" y="233" type="line"/>
      <point x="237" y="233" type="line"/>
      <point x="200" y="0" type="line"/>
      <point x="341" y="0" type="line"/>
      <point x="320" y="-132"/>
      <point x="213" y="-239"/>
      <point x="158" y="-294" type="curve"/>
    </contour>
  </outline>
</glyph>
<glyph name="dagger" format="1">
  <advance width="890"/>
  <unicode hex="2020"/>
  <outline>
    <contour>
      <point x="233" y="0" type="line"/>
      <point x="421" y="0" type="line"/>
      <point x="569" y="931" type="line"/>
      <point x="835" y="931" type="line"/>
      <point x="855" y="1060" type="line"/>
      <point x="589" y="1060" type="line"/>
      <point x="651" y="1446" type="line"/>
      <point x="463" y="1446" type="line"/>
      <point x="401" y="1060" type="line"/>
      <point x="141" y="1060" type="line"/>
      <point x="121" y="931" type="line"/>
      <point x="381" y="931" type="line"/>
    </contour>
  </outline>
</glyph>
<glyph name="fraction" format="1">
  <advance width="768"/>
  <unicode hex="2044"/>
  <outline>
    <contour>
      <point x="-103" y="0" type="line"/>
      <point x="84" y="0" type="line"/>
      <point x="871" y="1506" type="line"/>
      <point x="688" y="1506" type="line"/>
    </contour>
  </outline>
</glyph>
<glyph name="foursuperior" format="1">
  <advance width="1050"/>
  <unicode hex="2074"/>
  <outline>
    <contour>
      <point x="526" y="694" type="line"/>
      <point x="645" y="694" type="line"/>
      <point x="674" y="877" type="line"/>
      <point x="802" y="877" type="line"/>
      <point x="818" y="979" type="line"/>
      <point x="690" y="979" type="line"/>
      <point x="723" y="1186" type="line"/>
      <point x="604" y="1186" type="line"/>
      <point x="571" y="979" type="line"/>
      <point x="329" y="979" type="line"/>
      <point x="756" y="1545" type="line"/>
      <point x="615" y="1545" type="line"/>
      <point x="166" y="972" type="line"/>
      <point x="151" y="877" type="line"/>
      <point x="555" y="877" type="line"/>
    </contour>
  </outline>
</glyph>
<glyph name="trademark" format="1">
  <advance width="1843"/>
  <unicode hex="2122"/>
  <outline>
    <contour>
      <point x="791" y="766" type="line"/>
      <point x="916" y="766" type="line"/>
      <point x="1005" y="1329" type="line"/>
      <point x="1121" y="931" type="line"/>
      <point x="1282" y="931" type="line"/>
      <point x="1517" y="1329" type="line"/>
      <point x="1428" y="766" type="line"/>
      <point x="1555" y="766" type="line"/>
      <point x="1663" y="1446" type="line"/>
      <point x="1467" y="1446" type="line"/>
      <point x="1215" y="1033" type="line"/>
      <point x="1097" y="1446" type="line"/>
      <point x="899" y="1446" type="line"/>
    </contour>
    <contour>
      <point x="291" y="766" type="line"/>
      <point x="426" y="766" type="line"/>
      <point x="516" y="1332" type="line"/>
      <point x="728" y="1332" type="line"/>
      <point x="746" y="1446" type="line"/>
      <point x="187" y="1446" type="line"/>
      <point x="169" y="1332" type="line"/>
      <point x="381" y="1332" type="line"/>
    </contour>
  </outline>
</glyph>
<glyph name="Ohm" format="1">
  <advance width="1586"/>
  <unicode hex="2126"/>
  <outline>
    <contour>
      <point x="909" y="1468" type="curve" smooth="yes"/>
      <point x="551" y="1468"/>
      <point x="287" y="1372"/>
      <point x="183" y="716" type="curve" smooth="yes"/>
      <point x="128" y="365"/>
      <point x="215" y="219"/>
      <point x="358" y="141" type="curve"/>
      <point x="113" y="141" type="line"/>
      <point x="91" y="0" type="line"/>
      <point x="581" y="0" type="line"/>
      <point x="603" y="141" type="line"/>
      <point x="387" y="225"/>
      <point x="327" y="360"/>
      <point x="386" y="736" type="curve" smooth="yes"/>
      <point x="467" y="1248"/>
      <point x="623" y="1304"/>
      <point x="883" y="1304" type="curve" smooth="yes"/>
      <point x="1143" y="1304"/>
      <point x="1281" y="1248"/>
      <point x="1200" y="736" type="curve" smooth="yes"/>
      <point x="1141" y="360"/>
      <point x="1037" y="225"/>
      <point x="795" y="141" type="curve"/>
      <point x="773" y="0" type="line"/>
      <point x="1263" y="0" type="line"/>
      <point x="1285" y="141" type="line"/>
      <point x="1040" y="141" type="line"/>
      <point x="1207" y="219"/>
      <point x="1342" y="365"/>
      <point x="1397" y="716" type="curve" smooth="yes"/>
      <point x="1501" y="1372"/>
      <point x="1267" y="1468"/>
    </contour>
  </outline>
</glyph>
<glyph name="estimated" format="1">
  <advance width="1199"/>
  <unicode hex="212E"/>
  <outline>
    <contour>
      <point x="714" y="1210" type="curve" smooth="yes"/>
      <point x="833" y="1210"/>
      <point x="942" y="1162"/>
      <point x="992" y="1065" type="curve"/>
      <point x="949" y="790" type="line"/>
      <point x="335" y="790" type="line"/>
      <point x="379" y="1067" type="line"/>
      <point x="465" y="1161"/>
      <point x="595" y="1210"/>
    </contour>
    <contour>
      <point x="95" y="730" type="curve" smooth="yes"/>
      <point x="45" y="413"/>
      <point x="195" y="178"/>
      <point x="575" y="178" type="curve" smooth="yes"/>
      <point x="781" y="178"/>
      <point x="929" y="267"/>
      <point x="1047" y="385" type="curve"/>
      <point x="1004" y="436" type="line"/>
      <point x="878" y="321"/>
      <point x="723" y="264"/>
      <point x="583" y="264" type="curve" smooth="yes"/>
      <point x="455" y="264"/>
      <point x="341" y="312"/>
      <point x="274" y="406" type="curve"/>
      <point x="322" y="710" type="line"/>
      <point x="1106" y="710" type="line"/>
      <point x="1160" y="1049"/>
      <point x="1042" y="1280"/>
      <point x="724" y="1280" type="curve" smooth="yes"/>
      <point x="404" y="1280"/>
      <point x="144" y="1041"/>
    </contour>
  </outline>
</glyph>
<glyph name="partialdiff" format="1">
  <advance width="1202"/>
  <unicode hex="2202"/>
  <outline>
    <contour>
      <point x="348" y="-20" type="curve" smooth="yes"/>
      <point x="700" y="-20"/>
      <point x="999" y="385"/>
      <point x="1083" y="913" type="curve" smooth="yes"/>
      <point x="1148" y="1325"/>
      <point x="959" y="1507"/>
      <point x="701" y="1507" type="curve" smooth="yes"/>
      <point x="592" y="1507"/>
      <point x="472" y="1475"/>
      <point x="352" y="1415" type="curve"/>
      <point x="368" y="1354" type="line"/>
      <point x="447" y="1389"/>
      <point x="527" y="1407"/>
      <point x="601" y="1407" type="curve" smooth="yes"/>
      <point x="799" y="1407"/>
      <point x="947" y="1273"/>
      <point x="899" y="969" type="curve" smooth="yes"/>
      <point x="897" y="957"/>
      <point x="895" y="944"/>
      <point x="892" y="931" type="curve"/>
      <point x="435" y="924"/>
      <point x="124" y="568"/>
      <point x="81" y="294" type="curve" smooth="yes"/>
      <point x="53" y="121"/>
      <point x="133" y="-20"/>
    </contour>
    <contour>
      <point x="381" y="98" type="curve" smooth="yes"/>
      <point x="307" y="98"/>
      <point x="281" y="169"/>
      <point x="296" y="266" type="curve" smooth="yes"/>
      <point x="329" y="475"/>
      <point x="550" y="808"/>
      <point x="869" y="828" type="curve"/>
      <point x="804" y="542"/>
      <point x="623" y="98"/>
    </contour>
  </outline>
</glyph>
<glyph name="emptyset" format="1">
  <advance width="1552"/>
  <unicode hex="2205"/>
  <outline>
    <contour>
      <point x="699" y="167" type="curve" smooth="yes"/>
      <point x="406" y="167"/>
      <point x="227" y="388"/>
      <point x="273" y="682" type="curve" smooth="yes"/>
      <point x="320" y="974"/>
      <point x="569" y="1196"/>
      <point x="862" y="1196" type="curve" smooth="yes"/>
      <point x="1156" y="1196"/>
      <point x="1332" y="974"/>
      <point x="1285" y="682" type="curve" smooth="yes"/>
      <point x="1239" y="388"/>
      <point x="993" y="167"/>
    </contour>
    <contour>
      <point x="681" y="66" type="curve" smooth="yes"/>
      <point x="1029" y="66"/>
      <point x="1339" y="331"/>
      <point x="1394" y="682" type="curve" smooth="yes"/>
      <point x="1450" y="1031"/>
      <point x="1224" y="1296"/>
      <point x="876" y="1296" type="curve" smooth="yes"/>
      <point x="530" y="1296"/>
      <point x="218" y="1031"/>
      <point x="162" y="682" type="curve" smooth="yes"/>
      <point x="107" y="331"/>
      <point x="335" y="66"/>
    </contour>
    <contour>
      <point x="110" y="54" type="line"/>
      <point x="168" y="-2" type="line"/>
      <point x="1448" y="1281" type="line"/>
      <point x="1390" y="1337" type="line"/>
    </contour>
  </outline>
</glyph>
<glyph name="minus" format="1">
  <advance width="911"/>
  <unicode hex="2212"/>
  <outline>
    <contour>
      <point x="129" y="439" type="line"/>
      <point x="756" y="439" type="line"/>
      <point x="782" y="609" type="line"/>
      <point x="155" y="609" type="line"/>
    </contour>
  </outline>
</glyph>
<glyph name="bulletoperator" format="1">
  <advance width="792"/>
  <unicode hex="2219"/>
  <outline>
    <contour>
      <point x="358" y="325" type="curve" smooth="yes"/>
      <point x="227" y="325"/>
      <point x="147" y="432"/>
      <point x="168" y="563" type="curve" smooth="yes"/>
      <point x="189" y="694"/>
      <point x="303" y="801"/>
      <point x="434" y="801" type="curve" smooth="yes"/>
      <point x="565" y="801"/>
      <point x="645" y="694"/>
      <point x="624" y="563" type="curve" smooth="yes"/>
      <point x="603" y="432"/>
      <point x="489" y="325"/>
    </contour>
  </outline>
</glyph>
<glyph name="radical" format="1">
  <advance width="1249"/>
  <unicode hex="221A"/>
  <outline>
    <contour>
      <point x="49" y="442" type="line"/>
      <point x="168" y="442" type="line"/>
      <point x="328" y="0" type="line"/>
      <point x="505" y="0" type="line"/>
      <point x="1357" y="1506" type="line"/>
      <point x="1221" y="1506" type="line"/>
      <point x="450" y="159" type="line"/>
      <point x="327" y="553" type="line"/>
      <point x="66" y="553" type="line"/>
    </contour>
  </outline>
</glyph>
<glyph name="infinity" format="1">
  <advance width="1650"/>
  <unicode hex="221E"/>
  <outline>
    <contour>
      <point x="316" y="485" type="curve" smooth="yes"/>
      <point x="494" y="485"/>
      <point x="804" y="736"/>
      <point x="804" y="736" type="curve"/>
      <point x="804" y="736"/>
      <point x="1050" y="485"/>
      <point x="1228" y="485" type="curve" smooth="yes"/>
      <point x="1431" y="485"/>
      <point x="1559" y="652"/>
      <point x="1586" y="820" type="curve" smooth="yes"/>
      <point x="1613" y="989"/>
      <point x="1536" y="1158"/>
      <point x="1334" y="1158" type="curve" smooth="yes"/>
      <point x="1156" y="1158"/>
      <point x="836" y="933"/>
      <point x="836" y="933" type="curve"/>
      <point x="836" y="933"/>
      <point x="600" y="1158"/>
      <point x="422" y="1158" type="curve" smooth="yes"/>
      <point x="219" y="1158"/>
      <point x="91" y="990"/>
      <point x="64" y="822" type="curve" smooth="yes"/>
      <point x="37" y="654"/>
      <point x="113" y="485"/>
    </contour>
    <contour>
      <point x="343" y="616" type="curve" smooth="yes"/>
      <point x="239" y="616"/>
      <point x="204" y="718"/>
      <point x="220" y="821" type="curve" smooth="yes"/>
      <point x="236" y="924"/>
      <point x="305" y="1027"/>
      <point x="409" y="1027" type="curve" smooth="yes"/>
      <point x="483" y="1027"/>
      <point x="718" y="829"/>
      <point x="718" y="829" type="curve"/>
      <point x="718" y="829"/>
      <point x="417" y="616"/>
    </contour>
    <contour>
      <point x="1228" y="616" type="curve" smooth="yes"/>
      <point x="1154" y="616"/>
      <point x="920" y="826"/>
      <point x="920" y="826" type="curve"/>
      <point x="920" y="826"/>
      <point x="1220" y="1027"/>
      <point x="1294" y="1027" type="curve" smooth="yes"/>
      <point x="1398" y="1027"/>
      <point x="1433" y="924"/>
      <point x="1417" y="821" type="curve" smooth="yes"/>
      <point x="1401" y="718"/>
      <point x="1332" y="616"/>
    </contour>
  </outline>
</glyph>
<glyph name="integral" format="1">
  <advance width="890"/>
  <unicode hex="222B"/>
  <outline>
    <contour>
      <point x="105" y="-380" type="curve" smooth="yes"/>
      <point x="306" y="-380"/>
      <point x="389" y="-288"/>
      <point x="419" y="-99" type="curve" smooth="yes"/>
      <point x="622" y="1181" type="line" smooth="yes"/>
      <point x="636" y="1267"/>
      <point x="668" y="1339"/>
      <point x="806" y="1339" type="curve" smooth="yes"/>
      <point x="816" y="1339"/>
      <point x="825" y="1339"/>
      <point x="836" y="1338" type="curve"/>
      <point x="855" y="1462" type="line"/>
      <point x="818" y="1466"/>
      <point x="783" y="1468"/>
      <point x="752" y="1468" type="curve" smooth="yes"/>
      <point x="544" y="1468"/>
      <point x="465" y="1376"/>
      <point x="430" y="1159" type="curve" smooth="yes"/>
      <point x="227" y="-127" type="line" smooth="yes"/>
      <point x="214" y="-208"/>
      <point x="174" y="-251"/>
      <point x="63" y="-251" type="curve" smooth="yes"/>
      <point x="48" y="-251"/>
      <point x="32" y="-251"/>
      <point x="15" y="-249" type="curve"/>
      <point x="-4" y="-373" type="line"/>
      <point x="35" y="-378"/>
      <point x="72" y="-380"/>
    </contour>
  </outline>
</glyph>
<glyph name="notequal" format="1">
  <advance width="768"/>
  <unicode hex="2260"/>
  <outline>
    <contour>
      <point x="50" y="205" type="line"/>
      <point x="197" y="205" type="line"/>
      <point x="730" y="1186" type="line"/>
      <point x="587" y="1186" type="line"/>
    </contour>
    <component base="equal" xOffset="-241"/>
  </outline>
</glyph>
<glyph name="lozenge" format="1">
  <advance width="1104"/>
  <unicode hex="25CA"/>
  <outline>
    <contour>
      <point x="365" y="0" type="line"/>
      <point x="535" y="0" type="line"/>
      <point x="988" y="725" type="line"/>
      <point x="765" y="1446" type="line"/>
      <point x="595" y="1446" type="line"/>
      <point x="116" y="725" type="line"/>
    </contour>
    <contour>
      <point x="478" y="160" type="line"/>
      <point x="295" y="725" type="line"/>
      <point x="655" y="1276" type="line"/>
      <point x="814" y="725" type="line"/>
    </contour>
  </outline>
</glyph>
